<?xml version="1.0" standalone="no"?>
<!DOCTYPE svg PUBLIC "-//W3C//DTD SVG 20010904//EN"
 "http://www.w3.org/TR/2001/REC-SVG-20010904/DTD/svg10.dtd">
<svg version="1.0" xmlns="http://www.w3.org/2000/svg"
 width="800.000000pt" height="800.000000pt" viewBox="0 0 800.000000 800.000000"
 preserveAspectRatio="xMidYMid meet">
<metadata>
Created by potrace 1.14, written by Peter Selinger 2001-2017
</metadata>
<g transform="translate(0.000000,800.000000) scale(0.100000,-0.100000)"
fill="#000000" stroke="none">
<path d="M0 4290 c0 -2041 2 -3710 5 -3710 3 0 15 17 28 37 13 21 68 83 122
138 110 112 167 184 190 239 9 20 45 75 80 122 36 46 68 96 71 111 4 15 24 57
46 95 21 37 38 70 38 73 0 4 15 21 33 40 17 18 57 59 88 92 68 70 160 153 169
153 4 0 14 7 21 17 8 9 41 28 74 43 33 15 101 47 150 70 50 24 104 47 120 51
17 4 44 12 60 18 17 6 46 13 66 16 20 3 46 14 59 25 12 10 45 27 73 36 29 9
75 31 102 48 64 41 106 60 124 57 18 -3 59 17 89 44 13 11 27 20 30 20 4 0 6
5 4 12 -2 7 2 13 8 13 7 0 6 5 -2 14 -11 11 -15 11 -25 -3 -7 -9 -13 -11 -13
-6 -1 10 -1 358 0 362 0 1 13 -3 30 -8 24 -9 33 -8 45 5 9 9 14 24 11 33 -3
10 -6 110 -8 222 -2 229 -6 219 75 220 l37 1 0 -95 c0 -88 -1 -95 -20 -95 -19
0 -20 -7 -20 -90 0 -87 1 -90 25 -96 14 -3 34 -4 45 -1 11 3 22 1 26 -4 3 -5
5 -73 5 -150 l0 -141 27 6 c15 3 37 8 48 12 20 5 21 2 20 -47 0 -29 -6 -54
-12 -56 -6 -2 -22 12 -34 31 -23 33 -50 38 -50 10 0 -9 -11 -14 -30 -14 -44 0
-38 -41 8 -54 12 -3 31 -9 42 -12 27 -7 26 13 -1 21 -11 4 -18 10 -14 13 12
12 40 10 56 -4 16 -15 48 -10 61 10 4 5 17 11 30 11 96 5 175 37 198 80 6 12
28 28 48 38 20 9 53 26 72 36 19 11 52 27 73 36 20 9 37 20 37 25 0 5 18 20
40 32 22 13 43 31 46 42 6 18 24 43 56 77 10 10 21 31 24 46 4 16 24 52 46 82
27 38 38 65 38 90 0 20 4 31 8 26 17 -20 54 -119 61 -166 9 -55 1 -56 -14 -2
-5 19 -14 35 -19 36 -6 1 -19 -21 -31 -50 -11 -29 -30 -65 -41 -80 -12 -15
-29 -43 -39 -62 -9 -19 -26 -43 -36 -54 -10 -12 -19 -28 -19 -38 0 -9 -6 -19
-14 -22 -7 -3 -16 -22 -19 -43 -4 -23 -16 -46 -29 -56 -13 -10 -17 -18 -10
-18 9 0 4 -11 -12 -31 -14 -17 -29 -41 -32 -55 -3 -13 -12 -24 -20 -24 -8 0
-14 -6 -14 -14 0 -7 -6 -19 -14 -25 -8 -7 -18 -27 -22 -44 -8 -36 -21 -63 -48
-94 -14 -16 -15 -23 -6 -23 10 0 9 -5 -3 -18 -10 -10 -17 -27 -17 -36 0 -19
-30 -79 -42 -84 -5 -2 -8 -10 -8 -17 0 -8 -13 -23 -29 -35 -35 -24 -170 -70
-207 -70 -22 0 -79 -24 -94 -40 -3 -3 -24 -14 -48 -25 -67 -29 -160 -100 -216
-165 -33 -37 -46 -81 -46 -152 0 -40 -4 -78 -8 -84 -11 -16 -41 -24 -47 -14
-4 6 4 10 16 10 18 0 20 2 8 16 -10 12 -10 17 0 23 10 6 9 10 -4 15 -11 4 -15
13 -12 25 3 12 -2 22 -12 25 -9 4 -27 13 -41 21 -39 23 -98 19 -120 -7 -10
-13 -21 -20 -24 -17 -4 3 3 18 15 33 19 24 25 26 76 21 31 -3 61 -9 67 -14 7
-6 18 -6 25 -1 10 6 2 14 -30 30 -24 11 -34 19 -23 17 24 -5 52 8 42 18 -3 4
-24 9 -47 12 -37 5 -39 4 -34 -17 6 -21 4 -22 -21 -16 -21 5 -26 4 -21 -6 4
-7 0 -5 -8 5 -8 9 -25 16 -38 16 -16 -1 -18 -3 -7 -6 20 -5 13 -33 -9 -33 -8
0 -12 4 -8 9 7 12 -22 41 -41 41 -8 0 -14 -7 -14 -15 0 -8 8 -15 18 -15 14 0
15 -2 2 -10 -13 -9 -13 -11 0 -20 8 -5 20 -11 25 -13 6 -3 7 -8 2 -13 -4 -4
-22 -2 -40 4 -50 18 -73 15 -91 -13 -14 -21 -14 -25 -2 -25 8 0 16 -5 18 -11
2 -7 22 -13 43 -15 62 -5 66 -6 60 -25 -4 -13 1 -19 17 -22 13 -2 -8 -5 -47
-7 l-70 -2 98 -17 c54 -9 96 -19 92 -22 -3 -4 -23 -3 -43 2 -48 11 -54 11 -47
-1 3 -6 -2 -10 -12 -11 -10 -1 -4 -6 15 -11 30 -10 44 -28 22 -28 -5 0 -10 -4
-10 -10 0 -5 14 -10 31 -10 28 0 30 2 18 17 -12 14 -12 16 1 11 8 -2 15 -13
15 -23 0 -13 11 -22 35 -29 l35 -10 -40 -7 c-22 -3 -31 -7 -19 -8 27 -1 74
-24 74 -35 0 -5 -18 -6 -39 -2 -43 7 -101 -2 -101 -15 0 -5 6 -6 14 -3 8 3 17
1 20 -5 4 -7 15 -7 31 -1 16 6 27 6 31 -1 3 -6 12 -8 20 -5 8 3 14 2 14 -3 0
-5 -11 -12 -24 -15 -31 -8 -43 -36 -15 -36 14 0 19 -5 17 -17 -3 -15 -12 -17
-56 -15 -70 5 -67 -12 5 -24 31 -5 58 -14 60 -20 5 -15 -49 -34 -94 -34 -20 0
-32 -4 -28 -10 8 -14 58 -13 72 1 16 16 75 -10 71 -31 -3 -12 -21 -15 -92 -15
-57 0 -91 -4 -93 -11 -5 -16 62 -24 125 -15 57 8 72 0 48 -25 -20 -19 -21 -44
-2 -44 8 0 17 -3 19 -7 3 -5 -25 -8 -61 -8 -37 0 -73 -1 -79 -3 -19 -6 -16
-29 5 -37 16 -6 16 -7 -1 -20 -11 -8 -26 -11 -35 -8 -15 4 -15 3 1 -10 9 -8
17 -19 17 -25 0 -6 12 -11 28 -10 66 3 162 -6 162 -14 0 -5 -46 -8 -105 -6
-57 1 -107 -1 -111 -4 -15 -16 7 -38 38 -38 30 -1 31 -2 16 -14 -10 -7 -18
-26 -18 -41 0 -18 -6 -28 -20 -32 -23 -6 -27 -31 -5 -39 22 -9 18 -21 -10 -28
-36 -9 -31 -33 8 -39 17 -3 106 -3 197 0 91 2 175 4 188 4 16 -1 26 8 35 31
11 26 19 32 47 34 19 0 45 2 58 3 14 1 22 7 22 19 0 14 8 19 30 19 28 0 30 -2
26 -34 -5 -35 -43 -92 -63 -92 -21 -1 -63 -24 -63 -34 0 -5 6 -7 14 -4 8 3 17
3 21 -1 3 -3 -11 -11 -32 -17 -31 -9 -39 -16 -43 -40 -4 -25 -10 -31 -38 -33
-37 -4 -42 -17 -9 -26 20 -6 21 -7 4 -17 -12 -7 -27 -7 -47 0 -18 6 -32 6 -35
0 -4 -5 -52 -9 -108 -9 -60 0 -96 -4 -89 -9 8 -5 43 -7 79 -6 38 2 60 0 53 -5
-10 -6 -7 -10 11 -13 13 -2 9 -3 -8 -1 -18 1 -33 -1 -33 -7 0 -5 -3 -8 -7 -8
-20 3 -29 -3 -41 -30 -9 -21 -18 -28 -32 -24 -24 7 -27 25 -3 21 10 -2 19 4
21 13 5 25 -53 31 -75 7 -11 -13 -12 -18 -3 -18 10 0 10 -3 -1 -16 -7 -9 -22
-14 -36 -11 -26 5 -29 -2 -10 -27 12 -17 25 -18 163 -10 82 4 183 8 224 9 41
1 91 4 110 5 l35 3 -43 6 c-24 4 -63 6 -87 5 -55 -3 -69 12 -20 22 28 5 35 11
35 29 0 19 7 23 46 29 26 3 67 6 91 6 37 0 44 3 39 15 -3 9 0 24 6 35 9 14 9
22 -1 34 -12 14 -10 16 15 17 29 1 45 4 54 9 3 1 33 3 68 5 35 2 65 5 68 8 9
8 -39 21 -68 18 -16 -1 -28 2 -28 8 0 6 15 11 34 11 44 0 66 9 66 26 0 11 -16
14 -65 14 -37 0 -65 4 -65 10 0 6 12 11 28 11 15 1 45 2 67 3 22 2 61 3 88 4
26 1 47 6 47 10 0 9 -9 10 -115 15 -100 5 -101 5 -90 16 6 5 60 12 120 14 61
2 109 8 108 12 -2 4 -19 9 -38 10 -19 1 -38 5 -42 9 -14 14 19 23 63 18 43 -4
45 -3 56 26 8 21 19 31 33 31 37 1 65 7 76 18 15 15 1 36 -18 29 -8 -4 -11 -1
-7 5 3 6 15 9 25 6 11 -3 19 -1 19 4 0 15 37 10 44 -6 4 -11 -1 -15 -19 -15
-15 0 -25 -6 -25 -14 0 -21 20 -30 33 -17 6 6 19 11 29 11 21 0 23 11 6 28 -6
6 -9 14 -6 18 3 3 60 5 127 5 71 0 121 4 121 9 0 12 87 13 94 1 3 -5 -12 -11
-34 -15 -38 -6 -66 -26 -36 -26 25 0 19 -19 -9 -30 -14 -5 -25 -16 -25 -25 0
-20 -43 -37 -102 -39 -26 -1 -50 -5 -54 -9 -8 -7 14 -10 58 -7 14 1 29 -3 32
-8 7 -12 -30 -24 -67 -22 -25 1 -26 0 -18 -23 9 -23 7 -26 -27 -34 -23 -5 -37
-15 -37 -24 0 -22 -56 -86 -80 -91 -13 -2 -19 -11 -18 -25 2 -17 -4 -23 -27
-28 -17 -4 -30 -13 -30 -21 0 -7 -11 -21 -24 -29 -13 -9 -27 -27 -30 -40 -4
-15 -16 -27 -32 -31 -19 -5 -24 -11 -21 -26 4 -13 -1 -22 -16 -28 -13 -5 308
-9 774 -9 l796 -1 7 43 c4 23 14 52 22 65 8 12 12 22 8 22 -4 0 -1 7 6 15 7 8
16 13 20 10 12 -7 19 18 10 35 -5 9 -2 23 6 35 13 17 16 18 24 5 6 -8 7 -21 5
-29 -3 -8 -8 -40 -12 -70 -3 -31 -13 -64 -21 -74 -13 -15 -14 -20 -3 -26 8 -5
10 -14 7 -20 -5 -8 75 -11 291 -11 311 1 396 10 414 43 6 9 20 17 33 17 13 0
29 7 36 15 9 10 17 12 23 6 14 -14 37 -2 37 20 0 15 7 19 39 19 22 0 46 7 55
15 8 8 21 15 28 15 8 0 19 5 25 11 9 9 29 15 56 18 4 1 7 7 7 15 0 9 16 17 41
21 34 6 40 10 36 27 -4 14 -1 18 11 17 24 -4 81 10 120 28 32 14 33 15 15 30
-10 8 -13 12 -6 8 7 -3 26 1 42 10 17 8 47 17 69 18 48 5 63 13 55 32 -3 9 1
15 11 15 9 0 16 5 16 10 0 6 13 10 29 10 34 0 51 16 24 22 -10 3 1 8 25 12 24
4 42 13 42 21 0 7 9 15 20 18 11 3 20 1 20 -4 0 -5 4 -9 10 -9 5 0 7 7 4 15
-5 12 4 14 56 10 39 -3 59 -1 55 5 -3 6 -13 10 -21 10 -22 0 -17 17 7 23 12 3
18 10 14 16 -3 7 2 11 15 11 18 0 19 -3 10 -21 -14 -25 -5 -71 13 -67 7 2 12
-1 12 -7 0 -5 -28 -8 -67 -6 -57 2 -67 0 -71 -16 -4 -16 -5 -16 -6 0 -1 21
-21 23 -21 2 0 -19 32 -33 38 -17 5 15 22 5 22 -13 0 -9 -14 -15 -37 -17 -26
-2 -38 -8 -38 -18 0 -8 7 -15 15 -16 34 -2 40 -4 40 -14 0 -5 -18 -10 -39 -10
-38 0 -68 -19 -42 -28 20 -7 -18 -42 -46 -42 -27 0 -31 -24 -5 -40 16 -11 16
-11 0 -6 -10 3 -31 0 -48 -5 -24 -9 -28 -14 -20 -29 12 -22 4 -30 -29 -30 -49
0 -69 -38 -23 -41 9 -1 4 -4 -13 -8 -21 -5 -29 -12 -27 -24 2 -9 -2 -17 -7
-17 -6 0 -8 -7 -5 -15 5 -12 -2 -15 -30 -15 -20 0 -36 -4 -36 -9 0 -5 -3 -16
-6 -24 -4 -12 19 -15 158 -15 90 -1 154 2 144 7 -16 6 -17 8 -4 13 9 4 19 3
24 -2 11 -11 134 -18 134 -7 0 4 7 7 15 7 22 0 18 18 -7 31 -23 12 -23 12 6
20 16 5 33 6 38 3 4 -3 8 0 8 7 0 7 3 9 7 6 8 -9 43 22 43 38 0 28 32 75 52
75 16 0 19 5 13 29 -5 26 -4 29 14 24 16 -4 26 5 48 41 15 25 34 46 41 46 19
0 14 20 -5 21 -10 1 -2 4 17 8 23 4 36 12 38 24 2 10 17 31 33 46 16 16 29 32
29 38 0 5 17 8 38 7 20 -2 27 0 15 2 -33 8 -30 38 2 31 41 -7 24 15 -21 28
-39 11 -39 11 -11 17 16 3 45 1 65 -4 20 -6 49 -10 64 -10 15 1 29 -6 32 -15
5 -12 9 -13 21 -3 11 9 18 10 29 1 7 -6 24 -10 36 -9 13 2 25 -3 27 -9 5 -15
-74 -18 -96 -4 -23 15 -41 1 -41 -29 0 -33 -15 -47 -34 -31 -16 13 -46 4 -46
-13 0 -18 21 -35 36 -29 8 3 14 1 14 -4 0 -17 -13 -23 -26 -12 -20 17 -36 6
-49 -32 -11 -30 -16 -34 -44 -31 -26 3 -31 0 -31 -17 0 -31 -1 -34 -16 -56 -8
-11 -14 -29 -14 -41 0 -26 -18 -35 -43 -22 -19 10 -34 -12 -22 -32 4 -7 -2
-14 -14 -17 -15 -4 -21 -13 -21 -33 0 -30 -21 -45 -39 -27 -8 8 -11 8 -11 0 0
-6 -3 -18 -6 -27 -4 -11 0 -16 14 -16 12 0 24 -5 27 -10 9 -14 -24 -25 -37
-12 -11 11 -48 4 -48 -9 0 -5 30 -9 66 -9 58 0 65 2 54 15 -9 11 -9 15 -1 15
6 0 14 -6 17 -14 4 -11 29 -14 107 -14 56 0 114 2 130 4 36 7 35 27 -1 22 -34
-5 -63 18 -36 29 9 3 20 0 24 -7 6 -10 17 -7 49 11 48 27 52 39 12 39 -17 0
-33 4 -36 10 -6 10 13 15 53 11 12 -1 30 5 38 14 14 13 12 15 -19 15 -22 0
-37 6 -41 15 -3 8 -2 15 2 16 86 8 109 12 117 20 5 5 -9 9 -37 9 -28 0 -50 6
-58 15 -7 9 -21 13 -35 9 -13 -3 -26 -1 -29 5 -4 6 -20 11 -37 11 -16 0 -29 3
-29 6 0 11 29 33 32 24 2 -5 29 -11 60 -12 37 -2 58 -7 58 -15 0 -17 13 -23
38 -16 13 3 22 13 22 24 0 14 -7 19 -29 19 -20 0 -30 6 -34 20 -5 21 16 29 28
9 5 -6 16 -4 33 7 24 16 26 16 38 -1 12 -17 15 -17 46 -2 18 9 26 17 16 17 -9
0 -18 6 -21 13 -3 9 -9 9 -23 1 -14 -8 -27 -8 -49 2 -16 7 -39 15 -50 19 -20
6 -20 7 0 21 17 12 20 12 28 -2 7 -12 18 -14 43 -9 19 3 34 2 34 -3 0 -14 83
-8 88 7 6 18 -19 32 -35 19 -9 -7 -13 -7 -13 2 0 8 -9 11 -25 8 -14 -3 -30 1
-36 8 -11 14 0 20 26 14 6 -1 31 -3 58 -5 44 -3 48 -1 53 24 10 48 13 51 43
51 16 0 32 4 36 9 8 14 -9 21 -25 11 -7 -5 -22 -4 -34 2 -12 6 -27 14 -35 18
-8 3 -17 12 -19 18 -6 18 48 15 55 -3 5 -13 8 -13 20 5 18 25 10 51 -14 47
-10 -1 -18 3 -18 8 0 13 76 7 93 -8 10 -8 16 -7 23 4 16 26 6 44 -24 41 -29
-4 -35 11 -17 38 9 13 12 13 24 -2 17 -23 42 -23 54 -1 9 14 11 14 21 -5 10
-19 15 -20 31 -10 13 9 18 19 14 35 -6 21 -3 23 30 23 41 0 48 17 11 26 -14 3
-25 10 -25 15 0 13 27 11 50 -3 16 -10 23 -9 43 10 23 21 25 22 31 5 5 -12 1
-23 -11 -33 -11 -8 -22 -23 -26 -33 -5 -13 -13 -16 -32 -11 -25 6 -31 -4 -26
-43 1 -6 -9 -13 -21 -15 -13 -2 -24 -11 -26 -23 -2 -11 -10 -25 -18 -31 -7 -6
-15 -22 -17 -35 -3 -19 -11 -25 -35 -27 -25 -3 -30 -7 -29 -27 1 -13 -1 -23
-4 -22 -12 4 -39 -26 -39 -44 0 -10 -9 -21 -20 -24 -14 -4 -20 -15 -20 -36 0
-26 -3 -29 -32 -30 -18 -1 -26 -3 -17 -6 11 -3 15 -12 11 -29 -3 -19 -9 -23
-23 -19 -15 5 -20 0 -25 -25 -4 -17 -18 -39 -31 -50 -14 -11 -22 -24 -18 -30
9 -15 -13 -40 -30 -34 -7 3 -16 1 -19 -4 -3 -5 4 -12 17 -16 17 -5 19 -8 8
-15 -7 -5 -21 -7 -31 -4 -25 7 -51 -24 -44 -51 4 -16 0 -25 -10 -29 -9 -4 -16
-13 -16 -22 0 -13 43 -15 378 -13 l377 3 0 25 c0 18 6 25 20 26 12 1 30 6 42
12 12 7 29 9 39 5 23 -9 48 25 33 44 -16 18 8 25 94 27 81 1 109 -17 34 -22
-26 -2 -45 -7 -43 -11 3 -4 24 -6 47 -4 35 4 40 2 37 -14 -2 -12 -15 -20 -38
-23 -37 -5 -58 -40 -24 -40 16 0 16 -1 -2 -15 -17 -13 -11 -14 67 -15 55 0 90
4 98 12 11 10 14 10 18 1 7 -19 30 -16 38 4 6 17 7 17 19 1 15 -21 37 -23 55
-6 11 10 13 10 7 1 -6 -10 20 -13 113 -13 l121 0 0 980 0 980 -37 35 c-21 19
-47 37 -57 41 -11 4 -30 19 -44 35 -13 16 -30 29 -38 29 -8 0 -14 5 -14 10 0
6 -7 10 -15 10 -8 0 -15 5 -15 10 0 6 -9 10 -20 10 -11 0 -20 7 -20 15 0 17
21 11 62 -17 14 -10 33 -18 41 -18 9 0 22 -8 29 -18 7 -10 27 -27 43 -37 17
-10 42 -30 58 -44 l27 -25 0 65 0 66 -44 31 c-24 18 -49 32 -56 32 -6 0 -16 5
-23 10 -7 6 -28 21 -47 33 -19 12 -39 33 -45 45 -5 12 -13 22 -18 22 -4 0 -5
4 -2 10 3 6 -1 7 -9 4 -9 -3 -16 -1 -16 5 0 6 6 11 13 11 6 0 -12 12 -41 27
-29 15 -51 32 -49 37 5 14 49 24 71 16 28 -10 66 0 66 17 0 8 -5 11 -10 8 -6
-3 -12 0 -15 7 -3 8 43 63 110 131 l115 118 -1 217 c0 155 -3 210 -10 192 -13
-33 -69 -120 -91 -142 -10 -10 -18 -24 -18 -32 0 -8 -16 -28 -35 -45 -19 -17
-35 -34 -36 -38 0 -4 -29 -35 -65 -68 -36 -33 -89 -83 -118 -110 -29 -28 -70
-59 -92 -70 -21 -11 -60 -32 -86 -47 -60 -34 -117 -46 -129 -27 -17 27 -9 110
17 182 15 39 30 100 34 135 7 55 12 67 41 92 19 16 38 29 42 30 5 0 23 10 39
22 33 23 198 107 211 108 5 0 20 9 34 20 14 11 33 20 43 20 19 0 77 26 100 46
13 11 58 23 97 26 7 1 10 5 7 10 -3 4 0 8 5 8 7 0 11 27 11 69 0 64 -1 69 -20
64 -11 -3 -20 -10 -20 -17 0 -6 -44 -26 -97 -45 -53 -18 -106 -42 -117 -53
-12 -11 -40 -29 -63 -40 -24 -10 -43 -22 -43 -26 0 -4 -29 -27 -65 -51 -53
-35 -71 -42 -101 -39 -28 3 -38 0 -46 -16 -43 -84 -108 -99 -163 -39 -19 21
-40 50 -46 65 -16 38 -32 35 -68 -14 -34 -46 -39 -68 -16 -68 17 0 39 -36 30
-50 -9 -14 -21 -12 -39 6 -9 8 -16 11 -16 5 0 -6 -11 -11 -25 -11 -20 0 -25 5
-25 26 0 19 -4 25 -15 20 -9 -3 -15 0 -15 9 0 7 -9 17 -20 20 -26 8 -26 35 0
68 31 39 37 87 14 104 -38 28 -17 158 35 215 9 10 23 26 32 35 9 10 20 34 24
53 7 33 20 51 105 139 19 20 43 48 52 62 9 14 62 74 119 133 56 59 115 127
130 151 16 25 33 45 38 45 5 0 13 9 16 21 10 30 86 106 118 118 16 6 91 11
168 11 l139 0 0 99 0 98 -67 6 c-38 4 -103 7 -146 7 -75 0 -80 1 -108 31 -16
17 -29 40 -29 50 0 10 -4 19 -8 19 -4 0 -13 15 -20 33 -6 17 -36 60 -67 95
-30 35 -55 67 -55 71 0 5 -29 39 -65 75 -35 37 -83 94 -106 126 -23 33 -46 60
-50 60 -5 0 -9 6 -9 14 0 7 -16 31 -36 52 -59 65 -74 117 -55 193 5 20 15 72
21 116 6 44 22 118 37 165 14 47 29 126 34 175 4 50 11 115 14 146 5 38 4 59
-4 63 -6 4 -11 26 -11 50 0 51 -17 106 -33 106 -172 2 -271 10 -278 21 -12 20
9 51 31 44 43 -14 197 -21 235 -11 41 10 696 10 748 0 l27 -6 0 390 0 389
-347 7 c-192 4 -356 9 -365 12 -28 8 -21 31 22 78 22 24 40 48 40 53 0 10 19
30 138 142 23 23 50 41 60 41 23 0 48 -17 39 -26 -4 -4 -2 -13 4 -20 9 -11 13
-11 25 1 8 7 14 18 14 24 0 6 9 29 21 51 12 22 19 47 15 55 -3 8 0 15 6 15 6
0 3 9 -6 19 -17 19 -17 20 23 31 23 6 41 17 41 24 0 7 8 20 18 29 15 14 41 17
135 17 l117 0 0 120 0 120 -125 0 c-120 0 -126 1 -146 24 -12 13 -32 27 -44
30 -20 5 -24 15 -30 66 -4 33 -11 63 -17 66 -5 3 -19 20 -30 38 l-20 31 6 -28
7 -28 -40 21 c-22 11 -46 30 -52 43 -6 12 -23 34 -37 50 l-26 27 -2152 0
-2153 0 6 -91 c5 -80 4 -94 -11 -105 -12 -8 -16 -19 -11 -33 7 -24 -7 -28 -25
-6 -16 19 -49 19 -75 0 -13 -11 -32 -13 -65 -9 -56 7 -105 -16 -159 -75 -20
-22 -52 -47 -72 -55 -20 -8 -41 -22 -49 -30 -7 -9 -17 -16 -22 -16 -5 0 -16
-7 -24 -15 -17 -17 -44 -20 -44 -5 0 5 -6 7 -14 4 -8 -3 -23 3 -33 13 -16 16
-22 17 -31 7 -7 -7 -12 -18 -12 -24 0 -13 -53 -13 -67 1 -12 12 -83 2 -83 -13
0 -5 8 -8 18 -7 29 5 72 -11 72 -26 0 -8 -4 -15 -10 -15 -5 0 -10 4 -10 10 0
17 -28 -1 -33 -21 -3 -10 -12 -19 -21 -19 -9 0 -16 -4 -16 -10 0 -5 5 -10 10
-10 6 0 10 -9 10 -20 0 -25 -27 -27 -33 -2 -3 9 -6 1 -7 -18 -1 -19 -4 -29 -7
-22 -2 6 -11 12 -19 12 -8 0 -14 6 -14 13 0 22 -20 -17 -20 -40 0 -13 -8 -24
-20 -28 -23 -7 -26 -21 -8 -29 9 -3 8 -8 -5 -16 -9 -6 -17 -16 -17 -23 -1 -21
-38 -92 -47 -89 -4 1 -10 -8 -12 -20 -5 -36 -40 -53 -42 -20 0 15 -1 15 -8 -2
-4 -10 -23 -24 -42 -31 -18 -7 -42 -16 -52 -20 -13 -6 -16 -4 -11 9 4 11 0 16
-14 16 -22 0 -32 -18 -32 -56 0 -13 -4 -24 -10 -24 -5 0 -11 -10 -11 -22 -1
-19 -3 -17 -9 7 -7 25 -8 21 -7 -22 0 -28 3 -52 6 -51 21 2 29 -5 29 -27 -1
-14 8 -32 18 -40 11 -7 15 -17 11 -22 -5 -4 -17 2 -26 14 -18 21 -91 48 -91
33 0 -4 7 -10 15 -14 17 -6 21 -36 5 -36 -5 0 -10 -4 -10 -10 0 -5 7 -7 16 -3
12 4 15 0 12 -18 -2 -14 -9 -24 -19 -23 -12 1 -14 -5 -11 -25 3 -14 10 -29 16
-33 8 -6 8 -10 0 -15 -17 -11 -28 -72 -16 -86 12 -14 21 -177 10 -170 -5 2 -8
0 -8 -6 0 -5 6 -12 13 -15 8 -3 7 -8 -6 -16 -21 -13 -13 -32 9 -23 17 6 -39
-103 -63 -123 -17 -15 -17 -24 2 -24 11 0 15 -13 15 -54 0 -34 5 -56 13 -59
10 -4 10 -7 0 -18 -17 -18 -16 -58 2 -93 8 -15 15 -35 15 -44 0 -8 7 -23 15
-32 14 -16 14 -18 0 -23 -10 -4 -15 -1 -15 10 0 9 -3 14 -6 10 -11 -11 19 -75
33 -70 19 7 17 -32 -3 -52 -12 -11 -14 -19 -6 -27 6 -6 8 -25 5 -43 -3 -22 0
-41 11 -56 16 -23 16 -22 16 25 0 27 3 46 7 43 10 -10 4 -110 -7 -121 -7 -7
-10 -5 -10 5 -1 10 -3 10 -11 -3 -5 -10 -15 -18 -22 -18 -9 0 -12 -29 -12
-103 l0 -102 -31 -3 -32 -3 -7 -77 c-4 -42 -7 -79 -6 -82 2 -8 -110 -15 -196
-12 l-83 3 0 39 c0 32 -3 37 -19 33 -10 -3 -22 0 -25 6 -5 7 2 11 18 11 l25 0
0 405 0 405 -24 6 c-14 3 -32 3 -41 0 -13 -5 -15 -2 -11 14 3 11 0 18 -6 17
-13 -2 -20 300 -7 322 4 8 21 15 37 16 26 0 28 3 31 48 2 28 -1 47 -7 47 -7 0
-11 66 -11 200 0 197 0 200 21 200 19 0 21 5 18 58 -1 31 -1 144 -1 250 l2
192 24 0 c14 0 37 4 51 10 l26 10 -2 142 c-2 215 -5 200 36 197 19 -2 40 2 47
9 6 6 22 12 35 12 20 0 23 5 23 40 0 22 -4 40 -10 40 -5 0 -10 -13 -10 -30 0
-16 -4 -30 -10 -30 -5 0 -10 14 -10 30 l0 30 -860 0 -860 0 0 -3710z m7378
3331 c29 -52 28 -73 -8 -104 -23 -20 -30 -36 -30 -62 0 -29 -4 -35 -20 -35
-19 0 -20 4 -14 43 4 23 8 74 9 113 1 39 5 76 9 82 11 18 31 4 54 -37z m-5962
-105 c3 -8 -1 -27 -10 -43 l-15 -28 -1 43 c0 41 15 57 26 28z m904 -156 c0 -5
-4 -10 -10 -10 -5 0 -10 5 -10 10 0 6 5 10 10 10 6 0 10 -4 10 -10z m4484 -56
c9 -3 16 -12 16 -20 0 -8 10 -14 25 -14 27 0 43 -26 49 -82 1 -17 9 -33 16
-38 18 -11 -17 -29 -44 -22 -27 7 -72 61 -68 83 2 9 -2 20 -8 24 -9 6 -15 75
-6 75 2 0 11 -3 20 -6z m-5326 -162 c2 -12 -1 -22 -7 -22 -8 0 -11 -88 -11
-280 0 -180 -4 -280 -10 -280 -10 0 -14 35 -12 100 2 32 1 33 -8 12 -11 -26
-33 -25 -38 1 -2 10 3 17 12 17 32 0 37 37 35 249 -1 114 1 213 5 220 11 18
30 8 34 -17z m5290 -59 c15 -43 62 -87 115 -109 54 -22 63 -52 23 -74 -25 -13
-142 -10 -165 4 -12 8 -16 188 -4 199 12 13 21 7 31 -20z m-4811 -85 c-3 -8
-6 -5 -6 6 -1 11 2 17 5 13 3 -3 4 -12 1 -19z m-547 -362 c0 -3 -4 -8 -10 -11
-5 -3 -10 -1 -10 4 0 6 5 11 10 11 6 0 10 -2 10 -4z m1108 -210 c14 -16 19
-27 12 -31 -6 -4 -8 -15 -5 -26 5 -13 2 -19 -10 -19 -10 0 -13 -5 -9 -12 11
-17 7 -108 -6 -157 -14 -53 -10 -102 10 -118 13 -10 13 -13 -3 -25 -17 -13
-17 -15 6 -36 15 -15 22 -31 21 -51 -1 -21 3 -31 17 -34 13 -3 17 -11 13 -21
-3 -9 -1 -16 5 -16 18 0 12 -18 -8 -25 -16 -5 -37 -46 -33 -66 1 -3 -10 -12
-23 -19 -14 -7 -25 -19 -25 -26 0 -6 -9 -14 -21 -17 -12 -3 -18 -10 -15 -16 4
-5 -7 -30 -24 -55 -48 -70 -71 -130 -68 -176 2 -22 6 -40 10 -40 5 0 7 -4 5
-9 -1 -5 7 -17 18 -25 20 -15 20 -15 -2 -16 -24 0 -39 -15 -24 -24 6 -4 6 -19
0 -39 -5 -17 -9 -46 -9 -62 0 -17 -7 -41 -16 -53 -12 -17 -16 -49 -17 -121 -2
-101 12 -151 40 -151 7 0 13 -7 13 -15 0 -9 11 -20 25 -25 24 -9 25 -13 25
-103 0 -81 -3 -95 -21 -110 -15 -13 -18 -22 -10 -31 6 -6 8 -21 5 -33 -3 -11
-1 -24 6 -28 7 -4 14 1 17 14 6 25 23 28 24 4 1 -17 2 -17 6 0 3 10 12 17 21
15 13 -2 16 -17 15 -78 0 -41 -6 -93 -12 -115 -5 -22 -12 -70 -13 -107 -2 -46
-7 -68 -15 -68 -7 0 -13 -7 -13 -15 0 -8 6 -15 14 -15 16 0 30 -70 16 -84 -7
-7 -10 0 -10 19 0 41 -10 25 -12 -19 -1 -33 -47 -128 -48 -98 0 6 -4 12 -9 12
-13 0 -23 -31 -13 -44 4 -6 9 -23 11 -38 2 -21 -2 -28 -16 -28 -13 0 -15 -2
-5 -9 9 -5 15 -43 19 -113 5 -91 4 -106 -11 -111 -9 -4 -16 -5 -16 -3 0 2 -12
34 -26 72 -14 38 -27 80 -29 94 -2 14 -9 39 -15 55 -10 26 -13 28 -21 13 -13
-23 -32 -23 -53 1 -24 26 -37 76 -42 156 -2 38 -8 71 -14 73 -13 5 -13 22 -1
22 11 0 18 -19 41 -105 11 -43 21 -61 34 -63 37 -7 41 43 10 113 -7 17 -15 53
-17 80 -2 28 -14 92 -26 144 -39 172 -47 442 -21 656 6 44 13 121 16 170 10
155 58 440 76 451 4 3 8 18 8 34 0 16 7 59 16 96 16 72 21 166 10 201 -4 12
-3 24 2 27 5 3 7 22 5 43 -4 51 14 171 32 207 8 16 15 43 16 60 1 50 23 101
45 102 10 0 33 8 49 17 40 22 46 21 73 -7z m61 -93 c-1 -33 -2 -35 -8 -13 -4
14 -6 31 -3 38 8 22 12 13 11 -25z m-1132 -375 c-3 -8 -6 -5 -6 6 -1 11 2 17
5 13 3 -3 4 -12 1 -19z m33 -8 c0 -23 -4 -30 -20 -30 -11 0 -20 5 -20 10 0 6
6 9 13 8 6 -2 13 4 13 12 3 26 4 30 9 30 3 0 5 -13 5 -30z m-10 -240 c8 11 10
7 8 -19 -4 -41 -22 -51 -38 -21 -14 27 -4 63 11 40 8 -13 10 -13 19 0z m441
-126 l-9 -39 0 40 c1 42 9 67 15 49 2 -6 -1 -28 -6 -50z m76 -56 c-3 -8 -6 -5
-6 6 -1 11 2 17 5 13 3 -3 4 -12 1 -19z m673 -283 c0 -16 -6 -25 -16 -25 -11
0 -14 5 -10 16 3 9 6 20 6 25 0 5 5 9 10 9 6 0 10 -11 10 -25z m-646 -70 c-1
-5 6 -15 14 -21 23 -16 7 -31 -27 -26 -26 4 -33 -1 -48 -28 -10 -17 -24 -39
-31 -48 -26 -33 -3 55 25 98 19 29 33 40 48 38 11 -2 20 -7 19 -13z m-505 -27
c-8 -15 -8 -22 0 -28 18 -10 -14 -33 -49 -34 -24 -1 -29 4 -34 27 -9 44 9 63
55 59 35 -4 38 -6 28 -24z m1081 17 c10 -12 10 -24 0 -60 -15 -52 -30 -68 -62
-63 -18 2 -24 10 -26 37 -4 35 15 84 28 76 4 -3 13 2 20 10 16 19 24 19 40 0z
m750 -69 c0 -3 -4 -8 -10 -11 -5 -3 -10 -1 -10 4 0 6 5 11 10 11 6 0 10 -2 10
-4z m3425 -26 c-3 -5 -1 -10 5 -10 22 0 38 -25 28 -44 -7 -13 -4 -21 14 -36
20 -17 21 -19 5 -20 -10 0 -16 -4 -13 -9 3 -5 -1 -14 -9 -21 -21 -18 -19 -50
3 -50 10 0 40 -14 68 -31 27 -18 64 -38 82 -46 21 -9 32 -20 32 -33 0 -11 -4
-20 -9 -20 -5 0 -12 -11 -15 -25 -5 -19 -23 -33 -69 -55 -34 -16 -75 -30 -92
-32 -27 -3 -30 -6 -28 -37 1 -25 11 -42 41 -70 42 -40 66 -76 58 -90 -7 -10
42 -61 58 -61 25 -1 91 -56 95 -80 12 -72 4 -118 -21 -126 -12 -4 -31 -17 -41
-30 -10 -13 -25 -24 -33 -24 -15 0 -16 -4 -19 -66 -1 -23 -10 -50 -21 -63 -10
-12 -27 -32 -36 -43 -14 -16 -15 -24 -5 -46 6 -15 15 -30 20 -33 11 -8 19
-122 9 -115 -10 6 -92 -68 -92 -83 0 -15 20 -14 21 2 0 6 4 1 10 -11 11 -30 4
-42 -25 -42 -16 0 -39 17 -70 54 l-46 54 4 334 c3 183 10 377 16 431 8 73 8
117 0 170 -9 53 -9 92 -1 150 6 43 11 110 11 148 0 77 18 119 52 119 10 0 16
-4 13 -10z m-5035 -29 c0 -16 -7 -42 -15 -57 -8 -16 -15 -38 -15 -49 0 -31
-12 -41 -49 -40 -33 1 -34 2 -35 40 -1 39 0 40 34 40 42 0 59 18 60 63 0 17 5
32 10 32 6 0 10 -13 10 -29z m1595 19 c3 -5 1 -10 -4 -10 -6 0 -11 5 -11 10 0
6 2 10 4 10 3 0 8 -4 11 -10z m-1407 -138 c0 -43 3 -93 7 -112 4 -19 4 -32 0
-28 -4 4 -11 24 -15 45 -4 21 -9 43 -10 48 -4 12 11 125 16 125 2 0 3 -35 2
-78z m1399 56 c-3 -8 -6 -5 -6 6 -1 11 2 17 5 13 3 -3 4 -12 1 -19z m3 -64
c10 -35 11 -57 2 -93 -6 -25 -10 -53 -10 -61 0 -8 -5 -42 -11 -75 -7 -33 -13
-68 -14 -77 -1 -12 -10 -18 -29 -18 -15 0 -30 -4 -33 -10 -3 -5 -14 -10 -24
-10 -9 0 -34 -16 -55 -35 -46 -41 -56 -43 -56 -10 0 27 39 115 52 115 4 0 5
-7 2 -15 -4 -8 -1 -15 5 -15 6 0 11 9 11 20 0 11 6 20 13 20 23 0 34 42 29
103 -2 32 0 57 5 57 5 0 15 16 23 35 8 19 17 35 22 35 4 0 8 6 8 14 0 8 10 22
23 31 19 13 20 17 7 25 -13 8 -13 10 1 10 11 0 21 -15 29 -46z m-1193 -66 c-3
-7 -5 -2 -5 12 0 14 2 19 5 13 2 -7 2 -19 0 -25z m-397 -188 c0 -22 -4 -40
-10 -40 -5 0 -10 18 -10 40 0 22 5 40 10 40 6 0 10 -18 10 -40z m5488 -36 c24
-20 49 -48 57 -63 7 -14 28 -42 44 -61 17 -19 31 -40 31 -47 0 -6 9 -18 19
-25 26 -19 58 -76 66 -119 7 -36 6 -37 -63 -104 -39 -38 -102 -107 -102 -112
0 -9 -189 -193 -199 -193 -24 0 -22 98 1 144 15 28 21 74 19 136 -1 30 -2 73
-2 95 -1 22 4 69 11 105 6 36 15 110 20 165 4 55 8 101 9 102 1 1 27 9 42 12
3 0 24 -15 47 -35z m-5498 -99 c0 -8 -9 -15 -20 -15 -19 0 -19 -10 -20 -374 0
-220 3 -376 9 -378 5 -1 11 -30 13 -63 l3 -60 -92 -3 -92 -3 -3 133 c-3 131
-3 133 -25 130 -12 -2 -35 4 -50 13 -15 9 -19 14 -9 10 16 -4 17 -3 7 9 -19
23 -10 62 13 58 10 -2 29 -1 42 2 21 6 24 12 24 51 l0 45 43 0 c43 0 44 0 54
44 7 33 6 52 -3 73 -11 25 -12 26 -13 6 -1 -20 -6 -23 -43 -23 -32 0 -39 3
-28 10 10 6 11 10 3 10 -9 0 -13 21 -13 70 0 75 2 77 61 72 24 -2 41 47 38
112 -3 64 3 73 51 79 19 2 38 5 43 5 4 1 7 -5 7 -13z m140 -701 c0 -2 -7 -4
-15 -4 -8 0 -15 4 -15 10 0 5 7 7 15 4 8 -4 15 -8 15 -10z m-180 -424 c0 -22
-4 -40 -10 -40 -6 0 -10 -33 -10 -80 0 -73 2 -80 20 -80 17 0 20 -7 20 -39 0
-22 5 -41 11 -43 7 -2 6 -17 -4 -46 -8 -24 -13 -52 -10 -62 5 -18 0 -20 -38
-20 l-44 0 2 203 c1 111 2 212 2 225 1 18 7 22 31 22 28 0 30 -2 30 -40z m167
-262 c-2 -13 -4 -3 -4 22 0 25 2 35 4 23 2 -13 2 -33 0 -45z m999 -135 c7 -10
14 -30 14 -45 0 -15 5 -30 10 -33 6 -3 10 -14 10 -23 -1 -15 -2 -15 -15 2 -8
11 -15 27 -15 35 0 9 -7 29 -15 45 -8 15 -15 30 -15 32 0 10 14 2 26 -13z
m-1161 -205 c2 -7 6 -30 10 -50 l6 -37 -38 6 c-21 3 -38 6 -39 7 -1 1 -4 18
-7 38 -5 32 -3 37 16 41 40 8 48 7 52 -5z m1303 -176 c16 -11 12 -74 -4 -68
-7 3 -15 0 -18 -7 -2 -7 -5 9 -5 36 -1 47 3 53 27 39z m42 -97 c10 -12 10 -15
-4 -15 -9 0 -16 7 -16 15 0 8 2 15 4 15 2 0 9 -7 16 -15z m-53 -17 c-3 -8 -6
-5 -6 6 -1 11 2 17 5 13 3 -3 4 -12 1 -19z m-1669 -107 c11 -7 11 -9 -1 -14
-16 -6 -27 0 -27 15 0 10 11 10 28 -1z m6307 -61 c8 -13 -5 -13 -25 0 -13 8
-13 10 2 10 9 0 20 -4 23 -10z m-2405 -140 c0 -5 -2 -10 -4 -10 -3 0 -8 5 -11
10 -3 6 -1 10 4 10 6 0 11 -4 11 -10z m193 -27 c-7 -2 -19 -2 -25 0 -7 3 -2 5
12 5 14 0 19 -2 13 -5z m-73 -33 c0 -5 -7 -10 -15 -10 -8 0 -15 5 -15 10 0 6
7 10 15 10 8 0 15 -4 15 -10z m137 4 c-3 -3 -12 -4 -19 -1 -8 3 -5 6 6 6 11 1
17 -2 13 -5z m-157 -40 c0 -2 -7 -4 -15 -4 -8 0 -15 4 -15 10 0 5 7 7 15 4 8
-4 15 -8 15 -10z m238 -22 c6 -18 -15 -14 -22 4 -4 10 -1 14 6 12 6 -2 14 -10
16 -16z m-128 -12 c0 -12 -8 -12 -35 0 -18 8 -17 9 8 9 15 1 27 -3 27 -9z m60
-10 c0 -5 -7 -10 -16 -10 -8 0 -12 5 -9 10 3 6 10 10 16 10 5 0 9 -4 9 -10z
m-3840 -11 c0 -5 -11 -9 -24 -9 -13 0 -32 -3 -42 -7 -16 -6 -17 -5 -4 9 16 16
70 22 70 7z m3560 1 c0 -5 -5 -10 -11 -10 -5 0 -7 5 -4 10 3 6 8 10 11 10 2 0
4 -4 4 -10z m140 0 c0 -5 -4 -10 -9 -10 -6 0 -13 5 -16 10 -3 6 1 10 9 10 9 0
16 -4 16 -10z m287 4 c-3 -3 -12 -4 -19 -1 -8 3 -5 6 6 6 11 1 17 -2 13 -5z
m-90 -10 c-3 -3 -12 -4 -19 -1 -8 3 -5 6 6 6 11 1 17 -2 13 -5z m-263 -11 c4
-4 17 -8 29 -8 12 0 22 -6 22 -14 0 -21 -20 -24 -38 -6 -9 8 -21 14 -28 13 -6
-2 -14 3 -16 10 -5 13 19 17 31 5z m190 -9 c9 -3 16 -10 16 -15 0 -15 -37 -10
-50 6 -10 12 -10 15 3 15 8 0 22 -3 31 -6z m-288 -31 c-10 -10 -19 5 -10 18 6
11 8 11 12 0 2 -7 1 -15 -2 -18z m234 -5 c24 -14 30 -23 21 -26 -8 -3 -17 0
-19 7 -2 6 -12 11 -22 11 -10 0 -26 3 -35 6 -13 5 -14 8 -3 15 18 12 18 12 58
-13z m110 12 c8 -5 11 -12 8 -16 -10 -9 -38 3 -38 16 0 12 10 13 30 0z m-237
-21 c19 0 23 -14 6 -25 -6 -3 -16 -1 -22 5 -6 6 -19 11 -29 11 -10 0 -18 5
-18 11 0 7 8 9 23 4 12 -4 30 -7 40 -6z m297 -4 c0 -8 -4 -15 -9 -15 -13 0
-22 16 -14 24 11 11 23 6 23 -9z m-467 -2 c-7 -2 -19 -2 -25 0 -7 3 -2 5 12 5
14 0 19 -2 13 -5z m120 -28 c26 -4 47 -11 47 -16 0 -5 12 -9 26 -9 14 0 32 -7
41 -16 9 -8 22 -13 29 -10 7 3 16 1 19 -4 4 -6 19 -10 35 -10 16 0 32 -5 35
-10 4 -6 11 -8 16 -5 5 4 19 -4 32 -17 13 -14 32 -22 45 -20 12 2 22 -1 22 -7
0 -6 14 -11 30 -11 17 0 30 -5 30 -11 0 -5 14 -15 30 -20 17 -6 30 -17 30 -25
0 -19 -24 -18 -40 1 -7 8 -23 15 -35 15 -13 0 -25 7 -29 15 -6 16 -46 21 -46
6 0 -14 28 -33 39 -27 6 4 15 -2 20 -13 15 -26 14 -28 -10 -34 -27 -7 -15 -27
17 -27 14 0 27 -7 30 -15 4 -8 11 -15 16 -15 6 0 24 -6 41 -14 18 -8 40 -16
50 -20 21 -7 23 -34 2 -42 -8 -4 -15 -14 -15 -24 0 -11 -4 -22 -10 -25 -18
-11 -11 -35 10 -35 12 0 20 6 19 13 -3 26 1 37 15 37 23 0 30 -20 15 -46 -9
-18 -10 -27 -2 -35 15 -15 33 -3 33 22 0 23 8 24 48 3 33 -16 45 -54 17 -54
-8 0 -15 9 -15 20 0 15 -6 19 -22 16 -13 -1 -22 -6 -20 -9 1 -4 2 -11 2 -17 0
-5 11 -12 24 -16 14 -3 27 -12 30 -20 3 -8 14 -14 23 -12 12 2 18 -4 19 -19 2
-28 -12 -30 -26 -3 -6 11 -16 20 -22 20 -6 0 -19 7 -27 14 -22 20 -50 4 -32
-18 7 -8 19 -12 27 -9 19 7 31 -27 13 -38 -20 -13 -29 -11 -29 6 0 9 -9 15
-25 15 -14 0 -28 7 -31 15 -4 8 -12 15 -20 15 -8 0 -23 9 -35 21 -12 12 -29
19 -42 16 -18 -3 -15 -7 21 -22 28 -12 42 -24 40 -34 -5 -25 -38 -26 -38 -2 0
16 -6 21 -25 21 -14 0 -28 7 -31 15 -4 8 -18 15 -34 15 -16 0 -30 7 -34 15 -3
8 -14 15 -24 15 -11 0 -25 6 -31 13 -6 8 -30 19 -53 26 -24 7 -50 17 -58 22
-8 5 -22 12 -30 15 -8 3 -26 11 -40 19 -14 7 -41 16 -60 20 -57 11 -104 29
-116 44 -6 8 -20 12 -32 9 -13 -4 -23 0 -27 10 -8 23 0 25 39 11 20 -7 38 -10
42 -7 11 12 -7 28 -32 28 -13 0 -24 2 -24 4 0 2 -3 11 -6 20 -4 11 -1 16 10
16 9 0 16 8 16 20 0 10 9 24 19 29 15 9 20 7 24 -10 4 -13 12 -19 24 -17 23 4
30 38 8 38 -9 0 -26 5 -38 12 -12 7 -32 11 -44 9 -13 -1 -23 3 -23 9 0 13 65
11 98 -4 16 -7 26 -6 34 2 9 9 5 12 -19 12 -18 0 -33 6 -37 15 -3 8 -15 14
-27 12 -27 -3 -37 20 -13 30 10 4 21 0 29 -10 12 -17 40 -7 40 15 0 16 69 13
102 -4 13 -6 26 -9 29 -5 13 12 -7 25 -51 31 -24 4 -47 11 -50 17 -4 5 -19 9
-36 9 -16 0 -29 4 -29 10 0 5 -11 12 -25 16 -14 3 -22 10 -19 15 3 5 12 5 22
0 9 -5 38 -12 65 -16z m271 10 c3 -8 15 -15 27 -15 15 0 19 -4 15 -16 -4 -11
-1 -14 12 -10 9 3 28 -1 42 -9 16 -9 19 -14 10 -15 -9 0 -21 5 -26 10 -7 7
-19 7 -34 2 l-24 -9 21 -12 c12 -6 26 -10 30 -9 8 3 13 -5 13 -21 0 -5 -20 1
-45 12 -34 16 -42 23 -31 29 22 12 9 35 -27 48 -26 9 -29 13 -17 20 21 13 27
12 34 -5z m-144 -5 c0 -5 -9 -10 -19 -10 -11 0 -23 5 -26 10 -4 6 5 10 19 10
14 0 26 -4 26 -10z m-279 -13 c-1 -12 -15 -9 -19 4 -3 6 1 10 8 8 6 -3 11 -8
11 -12z m340 -6 c7 -10 20 -16 29 -14 19 5 36 -12 22 -21 -16 -10 -81 6 -86
21 -13 33 17 44 35 14z m219 9 c0 -5 -6 -10 -14 -10 -8 0 -18 5 -21 10 -3 6 3
10 14 10 12 0 21 -4 21 -10z m-490 -31 c0 -11 -27 -12 -34 0 -3 4 -3 11 0 14
8 8 34 -3 34 -14z m53 -12 c3 -8 -3 -14 -14 -14 -21 -2 -26 13 -6 20 6 3 13 6
13 6 1 1 4 -5 7 -12z m554 -13 c-3 -3 -12 -4 -19 -1 -8 3 -5 6 6 6 11 1 17 -2
13 -5z m-637 -14 c0 -5 -7 -10 -15 -10 -8 0 -15 5 -15 10 0 6 7 10 15 10 8 0
15 -4 15 -10z m555 0 c3 -5 -1 -10 -9 -10 -9 0 -16 5 -16 10 0 6 4 10 9 10 6
0 13 -4 16 -10z m53 -19 c3 -8 -1 -12 -9 -9 -7 2 -15 10 -17 17 -3 8 1 12 9 9
7 -2 15 -10 17 -17z m-698 -11 c13 -8 13 -10 -2 -10 -9 0 -20 5 -23 10 -8 13
5 13 25 0z m647 -12 c48 -27 47 -27 41 -33 -3 -3 -18 1 -34 10 -16 8 -34 15
-40 15 -6 0 -17 7 -24 15 -19 23 11 19 57 -7z m-572 -8 c3 -5 -3 -10 -14 -10
-12 0 -24 0 -28 -1 -4 0 -9 4 -11 10 -5 14 45 15 53 1z m-103 -32 c-9 -9 -15
-9 -24 0 -9 9 -7 12 12 12 19 0 21 -3 12 -12z m758 -2 c0 -8 -4 -18 -10 -21
-5 -3 -10 -4 -10 -1 0 2 -3 11 -6 20 -4 11 -1 16 10 16 9 0 16 -6 16 -14z m77
8 c-3 -3 -12 -4 -19 -1 -8 3 -5 6 6 6 11 1 17 -2 13 -5z m-767 -13 c0 -5 -7
-14 -15 -21 -13 -10 -15 -9 -15 9 0 12 6 21 15 21 8 0 15 -4 15 -9z m58 -23
c-3 -7 -11 -13 -18 -13 -7 0 -15 6 -17 13 -3 7 4 12 17 12 13 0 20 -5 18 -12z
m-138 -18 c12 -8 11 -10 -7 -10 -12 0 -25 5 -28 10 -8 13 15 13 35 0z m755
-10 c3 -5 -1 -10 -9 -10 -8 0 -18 5 -21 10 -3 6 1 10 9 10 8 0 18 -4 21 -10z
m-637 -15 c4 -4 -18 -44 -37 -68 -11 -13 -16 -15 -23 -5 -12 20 -10 28 8 28
23 0 13 34 -11 38 -11 2 -24 8 -30 14 -7 6 7 7 40 3 28 -4 51 -9 53 -10z m566
0 c11 -8 28 -13 37 -10 11 4 18 -1 22 -16 4 -16 11 -19 26 -14 13 4 21 2 21
-5 0 -6 14 -16 30 -21 17 -6 30 -15 30 -20 0 -11 -27 -12 -34 0 -3 4 -26 14
-52 21 -25 7 -48 19 -51 27 -3 7 -18 13 -34 13 -16 0 -29 2 -29 4 0 2 -3 11
-6 20 -8 20 14 20 40 1z m-3181 -54 c-3 -28 -9 -48 -14 -44 -4 4 -3 30 3 56
13 62 19 56 11 -12z m2177 49 c0 -5 -4 -10 -10 -10 -5 0 -10 5 -10 10 0 6 5
10 10 10 6 0 10 -4 10 -10z m1138 -7 c6 -19 -25 -16 -32 3 -4 11 -1 14 11 12
9 -2 18 -9 21 -15z m-3513 -3 c-3 -5 -13 -10 -21 -10 -8 0 -12 5 -9 10 3 6 13
10 21 10 8 0 12 -4 9 -10z m2665 0 c0 -5 -9 -10 -20 -10 -11 0 -20 5 -20 10 0
6 9 10 20 10 11 0 20 -4 20 -10z m60 -25 c0 -8 -9 -15 -20 -15 -20 0 -26 11
-13 23 12 13 33 7 33 -8z m840 -11 c0 -14 -3 -14 -15 -4 -8 7 -15 14 -15 16 0
2 7 4 15 4 8 0 15 -7 15 -16z m-1260 -4 c0 -5 -5 -10 -11 -10 -5 0 -7 5 -4 10
3 6 8 10 11 10 2 0 4 -4 4 -10z m-95 -72 c-4 -18 -8 -34 -9 -34 0 -1 -18 -4
-39 -8 l-39 -7 38 40 c45 50 58 52 49 9z m1375 12 c0 -5 -2 -10 -4 -10 -3 0
-8 5 -11 10 -3 6 -1 10 4 10 6 0 11 -4 11 -10z m-3740 -4 c0 -3 -4 -8 -10 -11
-5 -3 -10 -1 -10 4 0 6 5 11 10 11 6 0 10 -2 10 -4z m3680 -22 c0 -16 -16 -19
-25 -4 -8 13 4 32 16 25 5 -4 9 -13 9 -21z m-3329 -31 c-9 -16 -10 -14 -11 12
0 21 3 26 11 18 8 -8 8 -16 0 -30z m-371 7 c0 -18 -10 -25 -32 -21 -14 2 -9
-17 6 -22 8 -3 13 -20 12 -43 -1 -34 -4 -39 -34 -48 -20 -5 -31 -15 -30 -24 2
-8 -3 -17 -11 -20 -10 -3 -11 3 -6 29 4 19 12 39 17 46 5 7 7 17 4 22 -7 11
52 101 66 101 4 0 8 -9 8 -20z m3770 -26 c42 -3 44 -4 32 -16 -9 -9 -20 -7
-47 8 -39 21 -41 24 -22 43 10 10 13 7 17 -11 3 -13 12 -23 20 -24z m-1480
-32 c-6 -2 -23 -17 -38 -33 -14 -16 -29 -29 -34 -29 -15 0 13 44 46 72 26 23
32 24 35 10 2 -9 -2 -18 -9 -20z m1543 -57 c0 -6 -7 -11 -16 -13 -12 -3 -15 1
-11 13 7 17 25 17 27 0z m-1633 -30 c-7 -9 -15 -13 -17 -11 -7 7 7 26 19 26 6
0 6 -6 -2 -15z m-2662 -41 c14 -15 14 -16 -3 -13 -10 2 -20 10 -23 17 -5 17 6
15 26 -4z m-153 -4 c-28 -12 -63 -12 -70 0 -4 6 12 10 42 9 36 0 43 -3 28 -9z
m2785 2 c0 -5 -11 -19 -25 -32 -28 -26 -34 -10 -7 19 18 21 32 26 32 13z
m1484 -4 c-5 -8 -2 -9 9 -5 10 3 17 3 17 -2 0 -15 -35 -19 -48 -5 -17 19 -15
24 9 24 13 0 18 -4 13 -12z m-4164 -13 c0 -8 -7 -15 -15 -15 -13 0 -14 3 -3
15 16 18 18 18 18 0z m-45 -5 c-3 -5 -19 -10 -36 -10 -16 0 -29 5 -29 10 0 6
16 10 36 10 21 0 33 -4 29 -10z m4415 0 c0 -5 -4 -10 -10 -10 -5 0 -10 5 -10
10 0 6 5 10 10 10 6 0 10 -4 10 -10z m-3947 -7 c-7 -2 -19 -2 -25 0 -7 3 -2 5
12 5 14 0 19 -2 13 -5z m3872 -3 c3 -5 -1 -10 -10 -10 -9 0 -13 5 -10 10 3 6
8 10 10 10 2 0 7 -4 10 -10z m-67 -11 c-2 -6 -8 -10 -13 -10 -5 0 -11 4 -13
10 -2 6 4 11 13 11 9 0 15 -5 13 -11z m-4221 -22 c-17 -17 -19 -17 -42 1 l-24
19 42 -1 c40 -1 41 -2 24 -19z m2613 3 c0 -13 -32 -50 -44 -50 -5 0 -2 8 7 18
10 10 17 24 17 30 0 7 5 12 10 12 6 0 10 -4 10 -10z m1650 -5 c0 -8 -4 -15
-10 -15 -5 0 -10 7 -10 15 0 8 5 15 10 15 6 0 10 -7 10 -15z m80 5 c0 -5 -4
-10 -10 -10 -5 0 -10 5 -10 10 0 6 5 10 10 10 6 0 10 -4 10 -10z m753 -7 c-7
-2 -19 -2 -25 0 -7 3 -2 5 12 5 14 0 19 -2 13 -5z m-5116 -29 c-3 -3 -12 -4
-19 -1 -8 3 -5 6 6 6 11 1 17 -2 13 -5z m4338 -5 c12 -19 -5 -23 -22 -6 -16
16 -16 17 -1 17 9 0 20 -5 23 -11z m-1895 -36 c0 -9 -48 -33 -64 -33 -6 0 3 9
19 20 32 21 45 25 45 13z m1940 -9 c0 -8 -5 -12 -10 -9 -6 4 -8 11 -5 16 9 14
15 11 15 -7z m-4164 -9 c10 -8 14 -15 9 -15 -6 0 -15 4 -20 9 -6 5 -19 11 -30
14 -20 5 -19 5 1 6 11 0 29 -6 40 -14z m4294 -9 c0 -3 -4 -8 -10 -11 -5 -3
-10 -1 -10 4 0 6 5 11 10 11 6 0 10 -2 10 -4z m-2150 -15 c0 -8 -38 -34 -97
-67 -51 -28 -8 16 56 58 30 19 41 22 41 9z m2075 0 c3 -5 1 -12 -5 -16 -5 -3
-10 1 -10 9 0 18 6 21 15 7z m-4215 -11 c0 -5 -7 -10 -15 -10 -8 0 -15 5 -15
10 0 6 7 10 15 10 8 0 15 -4 15 -10z m-143 -6 c-3 -3 -12 -4 -19 -1 -8 3 -5 6
6 6 11 1 17 -2 13 -5z m5443 -4 c0 -5 -4 -10 -10 -10 -5 0 -10 5 -10 10 0 6 5
10 10 10 6 0 10 -4 10 -10z m-1040 -25 c0 -8 -4 -15 -9 -15 -13 0 -22 16 -14
24 11 11 23 6 23 -9z m1300 5 c0 -5 -4 -10 -10 -10 -5 0 -10 5 -10 10 0 6 5
10 10 10 6 0 10 -4 10 -10z m-306 -35 c-4 -8 -8 -15 -10 -15 -2 0 -4 7 -4 15
0 8 4 15 10 15 5 0 7 -7 4 -15z m223 9 c-3 -3 -12 -4 -19 -1 -8 3 -5 6 6 6 11
1 17 -2 13 -5z m123 -4 c0 -5 -4 -10 -10 -10 -5 0 -10 5 -10 10 0 6 5 10 10
10 6 0 10 -4 10 -10z m-770 -25 c-7 -9 -15 -13 -17 -11 -7 7 7 26 19 26 6 0 6
-6 -2 -15z m-4857 -22 c-7 -2 -19 -2 -25 0 -7 3 -2 5 12 5 14 0 19 -2 13 -5z
m5157 -3 c0 -5 -4 -10 -10 -10 -5 0 -10 5 -10 10 0 6 5 10 10 10 6 0 10 -4 10
-10z m400 0 c0 -5 -4 -10 -10 -10 -5 0 -10 5 -10 10 0 6 5 10 10 10 6 0 10 -4
10 -10z m210 0 c0 -5 -2 -10 -4 -10 -3 0 -8 5 -11 10 -3 6 -1 10 4 10 6 0 11
-4 11 -10z m-5830 -30 c0 -5 -4 -10 -10 -10 -5 0 -10 5 -10 10 0 6 5 10 10 10
6 0 10 -4 10 -10z m5541 -28 c-6 -2 -11 -12 -11 -22 0 -18 -36 -34 -45 -20 -3
5 10 23 27 42 24 24 34 29 37 18 2 -8 -2 -16 -8 -18z m-851 -2 c0 -5 -7 -10
-15 -10 -8 0 -15 5 -15 10 0 6 7 10 15 10 8 0 15 -4 15 -10z m490 0 c0 -5 -4
-10 -10 -10 -5 0 -10 5 -10 10 0 6 5 10 10 10 6 0 10 -4 10 -10z m280 -11 c0
-5 -4 -9 -10 -9 -5 0 -10 7 -10 16 0 8 5 12 10 9 6 -3 10 -10 10 -16z m-230
-9 c0 -5 -2 -10 -4 -10 -3 0 -8 5 -11 10 -3 6 -1 10 4 10 6 0 11 -4 11 -10z
m-410 -10 c0 -5 -10 -10 -22 -10 -19 0 -20 2 -8 10 19 13 30 13 30 0z m490 0
c0 -5 -7 -10 -16 -10 -8 0 -12 5 -9 10 3 6 10 10 16 10 5 0 9 -4 9 -10z m-705
-20 c3 -5 1 -10 -4 -10 -6 0 -11 5 -11 10 0 6 2 10 4 10 3 0 8 -4 11 -10z
m425 0 c0 -5 -4 -10 -10 -10 -5 0 -10 5 -10 10 0 6 5 10 10 10 6 0 10 -4 10
-10z m340 0 c0 -5 -4 -10 -10 -10 -5 0 -10 5 -10 10 0 6 5 10 10 10 6 0 10 -4
10 -10z m60 -21 c0 -5 -9 -9 -20 -9 -19 0 -27 20 -13 33 7 8 33 -11 33 -24z
m53 -22 c-10 -5 -28 -20 -41 -33 -13 -13 -34 -24 -48 -24 -20 0 -24 -4 -19
-19 4 -15 0 -20 -24 -23 -37 -5 -70 10 -50 23 8 5 22 6 32 3 9 -3 17 -1 17 3
0 21 41 52 63 47 20 -3 26 2 37 37 l14 41 19 -23 c17 -22 17 -23 0 -32z m-316
27 c-3 -3 -12 -4 -19 -1 -8 3 -5 6 6 6 11 1 17 -2 13 -5z m-3292 -40 c22 -24
24 -54 3 -54 -5 0 -7 4 -4 9 3 5 -1 11 -9 15 -23 8 -29 -13 -9 -35 15 -17 15
-19 1 -19 -9 0 -19 -9 -22 -20 -8 -26 -16 -25 -39 7 -27 36 -25 78 5 102 32
27 45 26 74 -5z m2907 4 c-6 -6 -16 -7 -22 -3 -9 6 -9 9 1 16 17 10 34 0 21
-13z m499 9 c-1 -12 -15 -9 -19 4 -3 6 1 10 8 8 6 -3 11 -8 11 -12z m419 9 c0
-3 -4 -8 -10 -11 -5 -3 -10 -1 -10 4 0 6 5 11 10 11 6 0 10 -2 10 -4z m-1110
-26 c0 -5 -12 -10 -27 -10 -22 0 -25 2 -13 10 20 13 40 13 40 0z m490 -4 c0
-2 -9 -6 -20 -9 -11 -3 -18 -1 -14 4 5 9 34 13 34 5z m-3075 -38 c5 -21 4 -33
-4 -36 -6 -2 -11 -16 -11 -30 0 -15 -4 -31 -8 -37 -20 -28 -92 -47 -92 -25 0
6 13 10 28 10 16 0 37 9 47 20 18 20 18 21 -13 32 -40 15 -41 36 -2 49 19 7
30 18 30 30 0 31 18 22 25 -13z m3130 22 c18 -8 17 -9 -7 -9 -16 -1 -28 4 -28
9 0 12 8 12 35 0z m-3555 -26 c0 -8 -5 -12 -10 -9 -6 4 -8 11 -5 16 9 14 15
11 15 -7z m3180 4 c0 -5 -13 -8 -30 -8 -16 0 -30 4 -30 9 0 4 13 8 30 7 16 -1
30 -4 30 -8z m-246 -13 c4 -10 -1 -15 -14 -15 -20 0 -26 11 -13 23 10 11 20 8
27 -8z m749 0 c1 -5 -6 -11 -15 -13 -11 -2 -18 3 -18 13 0 17 30 18 33 0z
m-393 -5 c0 -5 -4 -10 -10 -10 -5 0 -10 5 -10 10 0 6 5 10 10 10 6 0 10 -4 10
-10z m50 -1 c0 -12 -19 -21 -30 -14 -6 4 -8 10 -6 14 7 10 36 10 36 0z m100
-12 c14 -3 6 -4 -17 -3 -33 1 -39 4 -31 14 7 7 14 9 17 3 3 -5 17 -11 31 -14z
m-460 3 c0 -5 -5 -10 -11 -10 -5 0 -7 5 -4 10 3 6 8 10 11 10 2 0 4 -4 4 -10z
m552 -22 c-9 -9 -15 -9 -24 0 -9 9 -7 12 12 12 19 0 21 -3 12 -12z m-3576 -25
c-10 -10 -19 5 -10 18 6 11 8 11 12 0 2 -7 1 -15 -2 -18z m3162 15 c-6 -18
-28 -21 -28 -4 0 9 7 16 16 16 9 0 14 -5 12 -12z m142 -22 c-14 -14 -24 0 -16
21 6 15 8 15 16 3 6 -9 5 -19 0 -24z m340 19 c10 -13 9 -15 -9 -15 -12 0 -21
6 -21 15 0 8 4 15 9 15 5 0 14 -7 21 -15z m-280 -19 c0 -16 -18 -31 -27 -22
-8 8 5 36 17 36 5 0 10 -6 10 -14z m-430 -6 c0 -5 -4 -10 -9 -10 -6 0 -13 5
-16 10 -3 6 1 10 9 10 9 0 16 -4 16 -10z m488 -1 c-2 -6 -8 -10 -13 -10 -5 0
-11 4 -13 10 -2 6 4 11 13 11 9 0 15 -5 13 -11z m57 -19 c-3 -5 -10 -10 -16
-10 -5 0 -9 5 -9 10 0 6 7 10 16 10 8 0 12 -4 9 -10z m-675 -20 c-19 -13 -30
-13 -30 0 0 6 10 10 23 10 18 0 19 -2 7 -10z m53 4 c11 -11 -3 -24 -18 -18 -8
4 -12 10 -9 15 6 11 18 12 27 3z m417 -4 c0 -5 -7 -10 -15 -10 -8 0 -15 5 -15
10 0 6 7 10 15 10 8 0 15 -4 15 -10z m68 -7 c2 -8 -5 -13 -17 -13 -12 0 -21 6
-21 16 0 18 31 15 38 -3z m274 5 c-17 -8 -26 -8 -34 0 -9 9 -4 12 23 11 32 0
33 -1 11 -11z m-697 -8 c3 -5 -3 -10 -15 -10 -12 0 -18 5 -15 10 3 6 10 10 15
10 5 0 12 -4 15 -10z m479 -11 c-3 -5 -10 -7 -15 -3 -5 3 -7 10 -3 15 3 5 10
7 15 3 5 -3 7 -10 3 -15z m70 -5 c8 -20 8 -24 -1 -24 -17 0 -35 19 -29 29 10
16 23 14 30 -5z m-3516 -12 c5 -16 -17 -25 -33 -12 -10 8 -18 8 -34 -2 -16
-10 -23 -10 -33 0 -9 9 -7 12 9 12 12 0 24 4 28 9 7 13 58 7 63 -7z m3105 6
c3 -10 9 -10 25 -1 20 12 32 8 32 -10 0 -5 -7 -7 -15 -4 -8 4 -17 2 -20 -3 -8
-14 -52 -12 -61 1 -3 6 0 15 7 20 19 12 27 11 32 -3z m-4675 -10 c-2 -8 6 -12
20 -10 14 1 22 -3 20 -9 -2 -6 -7 -10 -11 -10 -4 1 -16 1 -27 1 -13 0 -20 7
-20 20 0 11 5 20 10 20 6 0 9 -6 8 -12z m4862 -18 c0 -11 -7 -20 -15 -20 -13
0 -14 4 -5 20 6 11 13 20 15 20 3 0 5 -9 5 -20z m-4910 6 c0 -3 -4 -8 -10 -11
-5 -3 -10 -1 -10 4 0 6 5 11 10 11 6 0 10 -2 10 -4z m4380 0 c0 -3 -4 -8 -10
-11 -5 -3 -10 -1 -10 4 0 6 5 11 10 11 6 0 10 -2 10 -4z m57 -12 c-3 -3 -12
-4 -19 -1 -8 3 -5 6 6 6 11 1 17 -2 13 -5z m543 -9 c10 -13 9 -15 -8 -15 -22
0 -36 13 -25 24 10 10 20 7 33 -9z m-3416 -3 c3 -5 -14 -9 -37 -10 -23 -2 -50
-5 -61 -8 -33 -11 -196 -10 -193 1 2 5 48 11 101 12 54 1 101 4 104 8 8 8 80
6 86 -3z m33 -24 c-3 -7 -5 -2 -5 12 0 14 2 19 5 13 2 -7 2 -19 0 -25z m2953
22 c0 -5 -5 -10 -11 -10 -5 0 -7 5 -4 10 3 6 8 10 11 10 2 0 4 -4 4 -10z m494
1 c3 -5 0 -11 -8 -14 -15 -6 -26 1 -26 15 0 11 27 10 34 -1z m-3839 -11 c3 -5
-1 -10 -10 -10 -9 0 -13 5 -10 10 3 6 8 10 10 10 2 0 7 -4 10 -10z m3106 -18
c0 -11 3 -12 6 -4 8 20 39 14 40 -8 2 -21 -9 -23 -58 -11 -23 5 -25 9 -18 29
10 25 29 21 30 -6z m-3151 14 c0 -3 -4 -8 -10 -11 -5 -3 -10 -1 -10 4 0 6 5
11 10 11 6 0 10 -2 10 -4z m3544 -11 c4 -11 -1 -15 -19 -15 -26 0 -34 15 -12
23 20 9 25 8 31 -8z m167 -4 c21 13 26 11 32 -10 3 -14 11 -17 31 -14 15 3 26
1 26 -6 0 -6 13 -10 29 -9 17 2 29 -1 28 -7 -2 -12 -87 -7 -104 6 -6 6 -34 10
-62 11 -28 0 -51 3 -51 6 0 3 8 14 17 24 15 17 19 17 28 4 8 -10 16 -12 26 -5z
m1037 -2 c-2 -6 -8 -10 -13 -10 -5 0 -11 4 -13 10 -2 6 4 11 13 11 9 0 15 -5
13 -11z m-253 -9 c3 -5 1 -10 -4 -10 -6 0 -11 5 -11 10 0 6 2 10 4 10 3 0 8
-4 11 -10z m179 -29 c4 -5 0 -12 -6 -14 -8 -3 -6 -6 5 -6 9 -1 17 -5 17 -10 0
-5 -8 -11 -17 -15 -10 -3 -24 -9 -32 -12 -9 -5 -11 -1 -7 14 4 11 2 23 -4 27
-6 3 -8 11 -5 16 8 12 42 12 49 0z m-1204 -9 c0 -4 -9 -13 -20 -20 -16 -10
-20 -10 -20 1 0 8 3 17 7 20 9 9 33 9 33 -1z m1140 4 c0 -2 -7 -7 -16 -10 -8
-3 -12 -2 -9 4 6 10 25 14 25 6z m-1432 -24 c2 -7 -6 -12 -17 -12 -21 0 -27
11 -14 24 9 9 26 2 31 -12z m239 12 c-3 -3 -12 -4 -19 -1 -8 3 -5 6 6 6 11 1
17 -2 13 -5z m-3005 -31 c-3 -16 -7 -22 -10 -15 -4 13 4 42 11 42 2 0 2 -12
-1 -27z m4038 6 c0 -5 -4 -9 -10 -9 -5 0 -10 7 -10 16 0 8 5 12 10 9 6 -3 10
-10 10 -16z m-5520 1 c-19 -13 -30 -13 -30 0 0 6 10 10 23 10 18 0 19 -2 7
-10z m4308 -2 c-6 -18 -28 -21 -28 -4 0 9 7 16 16 16 9 0 14 -5 12 -12z
m-4238 -8 c0 -5 -4 -10 -10 -10 -5 0 -10 5 -10 10 0 6 5 10 10 10 6 0 10 -4
10 -10z m5615 -24 c-1 -13 -11 -33 -23 -46 l-22 -24 0 33 c0 19 -4 30 -10 26
-5 -3 -10 -2 -10 4 0 12 24 26 48 28 12 1 17 -5 17 -21z m-5125 4 c0 -5 -4
-10 -10 -10 -5 0 -10 5 -10 10 0 6 5 10 10 10 6 0 10 -4 10 -10z m3870 -10 c0
-5 -4 -10 -10 -10 -5 0 -10 5 -10 10 0 6 5 10 10 10 6 0 10 -4 10 -10z m70 0
c0 -5 -9 -10 -19 -10 -11 0 -23 5 -26 10 -4 6 5 10 19 10 14 0 26 -4 26 -10z
m410 -5 c-7 -9 -16 -12 -19 -8 -4 4 -10 11 -15 16 -5 4 3 7 19 7 24 0 26 -2
15 -15z m75 6 c3 -6 -3 -15 -14 -20 -14 -8 -20 -7 -24 3 -9 24 24 38 38 17z
m-4915 -31 c0 -5 -7 -10 -16 -10 -8 0 -12 5 -9 10 3 6 10 10 16 10 5 0 9 -4 9
-10z m420 -16 c0 -14 -12 -19 -23 -8 -9 9 4 35 14 28 5 -3 9 -12 9 -20z m4273
11 c4 -8 3 -16 -1 -19 -13 -8 -35 11 -28 23 10 15 23 14 29 -4z m-4413 -5 c0
-5 -4 -10 -10 -10 -5 0 -10 5 -10 10 0 6 5 10 10 10 6 0 10 -4 10 -10z m200 0
c0 -5 -9 -10 -20 -10 -11 0 -20 5 -20 10 0 6 9 10 20 10 11 0 20 -4 20 -10z
m40 0 c0 -5 -5 -10 -11 -10 -5 0 -7 5 -4 10 3 6 8 10 11 10 2 0 4 -4 4 -10z
m60 1 c0 -6 -4 -13 -10 -16 -5 -3 -10 1 -10 9 0 9 5 16 10 16 6 0 10 -4 10 -9z
m4177 -16 c0 -8 -9 -15 -19 -15 -10 0 -18 7 -18 15 0 8 8 15 18 15 10 0 19 -7
19 -15z m-477 1 c0 -3 -4 -8 -10 -11 -5 -3 -10 -1 -10 4 0 6 5 11 10 11 6 0
10 -2 10 -4z m130 -6 c0 -5 -7 -10 -16 -10 -8 0 -12 5 -9 10 3 6 10 10 16 10
5 0 9 -4 9 -10z m1129 -7 c20 -16 20 -17 -5 -40 -31 -29 -34 -29 -31 -1 2 19
-4 24 -33 29 l-35 6 38 2 c20 0 37 6 37 11 0 14 7 13 29 -7z m-1467 -8 c0 -5
-5 -11 -11 -13 -6 -2 -11 4 -11 13 0 9 5 15 11 13 6 -2 11 -8 11 -13z m-4252
-15 c0 -5 -2 -10 -4 -10 -3 0 -8 5 -11 10 -3 6 -1 10 4 10 6 0 11 -4 11 -10z
m344 -17 c-13 -10 -20 -10 -23 -2 -4 14 19 30 33 22 5 -3 1 -12 -10 -20z m236
17 c0 -5 -5 -10 -11 -10 -5 0 -7 5 -4 10 3 6 8 10 11 10 2 0 4 -4 4 -10z
m4280 -5 c0 -8 -7 -15 -15 -15 -16 0 -20 12 -8 23 11 12 23 8 23 -8z m-410
-25 c0 -5 -9 -10 -20 -10 -11 0 -20 5 -20 10 0 6 9 10 20 10 11 0 20 -4 20
-10z m51 -13 c-13 -13 -26 -3 -16 12 3 6 11 8 17 5 6 -4 6 -10 -1 -17z m277
-24 c2 -8 -6 -13 -22 -13 -26 0 -40 12 -29 24 11 11 46 2 51 -11z m867 7 c3
-6 -2 -21 -13 -35 l-20 -25 -4 30 c-3 17 -2 32 0 35 9 9 31 5 37 -5z m-799
-21 c8 -14 -14 -29 -33 -22 -7 3 -13 11 -13 19 0 17 36 19 46 3z m-486 -3 c0
-11 -19 -15 -25 -6 -3 5 1 10 9 10 9 0 16 -2 16 -4z m113 -11 c4 -8 2 -17 -3
-20 -6 -4 -10 3 -10 14 0 25 6 27 13 6z m-1893 -35 c0 -14 -33 -21 -41 -8 -12
19 10 41 27 27 8 -6 14 -15 14 -19z m2110 5 c0 -19 -13 -25 -30 -15 -11 7 -11
11 -1 24 15 17 31 13 31 -9z m-4040 0 c10 -12 10 -15 -4 -15 -9 0 -16 7 -16
15 0 8 2 15 4 15 2 0 9 -7 16 -15z m5420 1 c0 -3 -4 -8 -10 -11 -5 -3 -10 -1
-10 4 0 6 5 11 10 11 6 0 10 -2 10 -4z m-1785 -16 c3 -5 -1 -10 -9 -10 -9 0
-16 5 -16 10 0 6 4 10 9 10 6 0 13 -4 16 -10z m1235 3 c0 -5 -4 -14 -9 -21 -7
-11 -9 -11 -14 1 -3 8 -3 18 0 21 9 8 23 7 23 -1z m55 -2 c2 -5 -4 -16 -14
-25 -17 -16 -19 -16 -23 7 -3 17 0 23 14 24 9 1 20 -2 23 -6z m-1237 -12 c-2
-6 -8 -10 -13 -10 -5 0 -11 4 -13 10 -2 6 4 11 13 11 9 0 15 -5 13 -11z m57
-8 c-3 -6 -11 -11 -17 -11 -6 0 -6 6 2 15 14 17 26 13 15 -4z m1678 -43 c-4
-8 -33 -11 -33 -4 0 2 3 11 6 20 5 12 9 13 19 3 7 -7 11 -15 8 -19z m-1402 7
c0 -5 -9 -11 -21 -13 -20 -3 -27 8 -13 22 10 9 34 3 34 -9z m1219 -5 c9 -6 10
-10 3 -10 -6 0 -18 -3 -27 -6 -11 -4 -16 -1 -16 10 0 18 17 21 40 6z m54 1 c3
-5 -1 -11 -9 -15 -15 -6 -29 7 -18 18 9 9 21 8 27 -3z m76 -1 c0 -5 -9 -10
-20 -10 -11 0 -20 5 -20 10 0 6 9 10 20 10 11 0 20 -4 20 -10z m-1285 -10 c3
-5 -1 -10 -9 -10 -9 0 -16 5 -16 10 0 6 4 10 9 10 6 0 13 -4 16 -10z m-415
-10 c0 -5 -7 -10 -15 -10 -8 0 -15 5 -15 10 0 6 7 10 15 10 8 0 15 -4 15 -10z
m50 -4 c0 -8 -4 -17 -9 -20 -10 -7 -23 19 -14 28 11 11 23 6 23 -8z m440 4 c0
-5 -9 -10 -19 -10 -11 0 -23 5 -26 10 -4 6 5 10 19 10 14 0 26 -4 26 -10z
m681 -13 c-13 -13 -26 -3 -16 12 3 6 11 8 17 5 6 -4 6 -10 -1 -17z m-1441 3
c0 -5 -4 -10 -9 -10 -6 0 -13 5 -16 10 -3 6 1 10 9 10 9 0 16 -4 16 -10z
m-3500 -10 c0 -5 -7 -10 -16 -10 -8 0 -12 5 -9 10 3 6 10 10 16 10 5 0 9 -4 9
-10z m3630 -20 c0 -5 -4 -10 -10 -10 -5 0 -10 5 -10 10 0 6 5 10 10 10 6 0 10
-4 10 -10z m1830 0 c0 -5 -9 -10 -20 -10 -11 0 -20 5 -20 10 0 6 9 10 20 10
11 0 20 -4 20 -10z m-1763 -6 c-3 -3 -12 -4 -19 -1 -8 3 -5 6 6 6 11 1 17 -2
13 -5z m53 -4 c0 -5 -4 -10 -10 -10 -5 0 -10 5 -10 10 0 6 5 10 10 10 6 0 10
-4 10 -10z m60 0 c0 -5 -7 -10 -16 -10 -8 0 -12 5 -9 10 3 6 10 10 16 10 5 0
9 -4 9 -10z m355 0 c3 -5 -1 -10 -10 -10 -9 0 -13 5 -10 10 3 6 8 10 10 10 2
0 7 -4 10 -10z m1015 -10 c0 -5 -5 -10 -11 -10 -5 0 -7 5 -4 10 3 6 8 10 11
10 2 0 4 -4 4 -10z m-330 -15 c0 -8 -4 -15 -10 -15 -5 0 -10 7 -10 15 0 8 5
15 10 15 6 0 10 -7 10 -15z m60 0 c0 -1 -9 -5 -20 -8 -12 -3 -20 0 -20 8 0 8
8 11 20 8 11 -3 20 -7 20 -8z m-1300 -25 c0 -5 -8 -10 -17 -10 -15 0 -16 2 -3
10 19 12 20 12 20 0z m56 -17 c-10 -10 -19 5 -10 18 6 11 8 11 12 0 2 -7 1
-15 -2 -18z m344 17 c0 -5 -7 -10 -16 -10 -8 0 -12 5 -9 10 3 6 10 10 16 10 5
0 9 -4 9 -10z m82 -18 c-19 -6 -44 6 -37 18 4 7 14 6 28 -2 14 -7 17 -13 9
-16z m52 -13 c-3 -5 -10 -7 -15 -3 -5 3 -7 10 -3 15 3 5 10 7 15 3 5 -3 7 -10
3 -15z m-744 1 c0 -5 -7 -10 -15 -10 -8 0 -15 5 -15 10 0 6 7 10 15 10 8 0 15
-4 15 -10z m-3640 -10 c0 -13 -20 -13 -40 0 -12 8 -9 10 13 10 15 0 27 -4 27
-10z"/>
<path d="M2440 4501 c0 -12 5 -21 10 -21 6 0 10 6 10 14 0 8 -4 18 -10 21 -5
3 -10 -3 -10 -14z"/>
<path d="M1540 3660 c0 -5 10 -10 23 -10 18 0 19 2 7 10 -19 13 -30 13 -30 0z"/>
<path d="M5247 1863 c-13 -12 -7 -24 18 -33 24 -9 35 -30 15 -30 -5 0 -10 -6
-10 -12 0 -14 74 -48 102 -48 9 0 20 -4 23 -10 9 -15 25 -12 25 5 0 9 -9 15
-24 15 -14 0 -31 6 -38 13 -7 7 -21 16 -30 20 -10 3 -18 11 -18 17 0 14 37 13
42 -2 5 -14 38 -3 38 13 0 6 -7 8 -16 5 -11 -4 -22 1 -32 15 -10 15 -21 19
-38 15 -17 -5 -24 -2 -24 9 0 15 -21 21 -33 8z"/>
<path d="M5385 1861 c-8 -15 3 -31 21 -31 9 0 14 7 12 17 -4 20 -24 28 -33 14z"/>
<path d="M5435 1830 c-8 -12 20 -24 35 -15 6 3 8 11 5 16 -8 12 -32 12 -40 -1z"/>
<path d="M5505 1800 c3 -5 10 -10 16 -10 5 0 9 5 9 10 0 6 -7 10 -16 10 -8 0
-12 -4 -9 -10z"/>
<path d="M5410 1790 c0 -9 75 -50 92 -50 4 0 8 7 8 15 0 9 -9 15 -21 15 -11 0
-27 7 -35 15 -17 17 -44 20 -44 5z"/>
<path d="M5260 1730 c0 -5 5 -10 10 -10 6 0 10 5 10 10 0 6 -4 10 -10 10 -5 0
-10 -4 -10 -10z"/>
<path d="M5540 1730 c0 -5 9 -10 21 -10 11 0 17 5 14 10 -3 6 -13 10 -21 10
-8 0 -14 -4 -14 -10z"/>
<path d="M5174 1719 c-9 -16 12 -33 31 -25 14 5 15 9 5 21 -15 18 -26 19 -36
4z"/>
<path d="M5317 1721 c-17 -6 -17 -8 -3 -20 17 -14 36 -7 36 15 0 15 -6 16 -33
5z"/>
<path d="M5450 1723 c1 -19 18 -33 33 -27 21 8 22 20 1 28 -21 8 -34 8 -34 -1z"/>
<path d="M5366 1701 c-7 -10 22 -37 30 -28 9 8 -3 37 -15 37 -5 0 -12 -4 -15
-9z"/>
<path d="M5230 1686 c0 -14 49 -36 81 -36 11 0 19 5 19 10 0 6 -8 10 -18 10
-10 0 -27 7 -38 15 -24 18 -44 19 -44 1z"/>
<path d="M5514 1684 c3 -9 6 -18 6 -20 0 -2 9 -4 20 -4 23 0 26 10 8 28 -18
18 -41 15 -34 -4z"/>
<path d="M5425 1670 c-7 -12 18 -24 37 -18 8 3 5 9 -9 16 -14 8 -24 9 -28 2z"/>
<path d="M5570 1656 c0 -2 7 -6 15 -10 8 -3 15 -1 15 4 0 6 -7 10 -15 10 -8 0
-15 -2 -15 -4z"/>
<path d="M5200 1641 c0 -6 4 -12 9 -15 13 -8 42 4 35 15 -7 12 -44 12 -44 0z"/>
<path d="M5352 1638 c6 -18 28 -21 28 -4 0 9 -7 16 -16 16 -9 0 -14 -5 -12
-12z"/>
<path d="M5490 1635 c7 -8 21 -15 32 -15 17 0 18 3 8 15 -7 8 -21 15 -32 15
-17 0 -18 -3 -8 -15z"/>
<path d="M5625 1630 c3 -5 15 -10 26 -10 11 0 17 5 14 10 -3 6 -15 10 -26 10
-11 0 -17 -4 -14 -10z"/>
<path d="M5273 1613 c9 -9 19 -14 23 -11 10 10 -6 28 -24 28 -15 0 -15 -1 1
-17z"/>
<path d="M5410 1620 c0 -5 7 -10 16 -10 8 0 12 5 9 10 -3 6 -10 10 -16 10 -5
0 -9 -4 -9 -10z"/>
<path d="M5550 1604 c0 -17 22 -14 28 4 2 7 -3 12 -12 12 -9 0 -16 -7 -16 -16z"/>
<path d="M5680 1604 c0 -11 22 -24 41 -24 5 0 9 9 9 19 0 14 -7 19 -25 17 -14
0 -25 -6 -25 -12z"/>
<path d="M5326 1595 c4 -9 11 -14 16 -13 15 5 11 23 -6 26 -11 2 -14 -2 -10
-13z"/>
<path d="M5460 1590 c0 -5 9 -10 20 -10 11 0 20 5 20 10 0 6 -9 10 -20 10 -11
0 -20 -4 -20 -10z"/>
<path d="M5385 1580 c-3 -6 1 -13 10 -16 19 -8 30 0 20 15 -8 14 -22 14 -30 1z"/>
<path d="M5607 1574 c3 -8 12 -13 20 -10 8 3 17 6 19 6 3 0 2 5 -1 10 -11 17
-45 12 -38 -6z"/>
<path d="M5530 1565 c0 -8 5 -15 10 -15 6 0 10 7 10 15 0 8 -4 15 -10 15 -5 0
-10 -7 -10 -15z"/>
<path d="M5660 1558 c0 -24 16 -39 34 -32 9 4 16 14 14 23 -4 20 -48 28 -48 9z"/>
<path d="M5440 1550 c0 -5 9 -10 19 -10 11 0 23 5 26 10 4 6 -5 10 -19 10 -14
0 -26 -4 -26 -10z"/>
<path d="M5590 1530 c0 -5 7 -10 15 -10 8 0 15 5 15 10 0 6 -7 10 -15 10 -8 0
-15 -4 -15 -10z"/>
<path d="M5506 1521 c-3 -5 1 -11 9 -15 9 -3 15 0 15 9 0 16 -16 20 -24 6z"/>
<path d="M5650 1505 c7 -8 19 -15 27 -15 13 0 13 3 3 15 -7 8 -19 15 -27 15
-13 0 -13 -3 -3 -15z"/>
<path d="M5576 1492 c-3 -6 -1 -14 5 -17 15 -10 25 3 12 16 -7 7 -13 7 -17 1z"/>
<path d="M5707 1484 c-14 -15 -6 -34 14 -34 14 0 19 5 17 17 -3 18 -20 27 -31
17z"/>
<path d="M5635 1460 c3 -5 8 -10 11 -10 2 0 4 5 4 10 0 6 -5 10 -11 10 -5 0
-7 -4 -4 -10z"/>
<path d="M5760 1438 c0 -13 6 -18 17 -16 24 5 27 25 3 31 -15 4 -20 0 -20 -15z"/>
<path d="M2070 1470 c0 -5 5 -10 10 -10 6 0 10 5 10 10 0 6 -4 10 -10 10 -5 0
-10 -4 -10 -10z"/>
<path d="M1927 7927 c-11 -29 -9 -43 4 -30 6 6 9 19 7 29 -3 18 -4 18 -11 1z"/>
<path d="M2120 7880 c0 -22 5 -40 10 -40 6 0 10 18 10 40 0 22 -4 40 -10 40
-5 0 -10 -18 -10 -40z"/>
<path d="M1940 7875 c0 -8 -5 -15 -12 -15 -6 0 -9 -2 -6 -5 3 -3 13 -3 22 1
17 7 22 34 6 34 -5 0 -10 -7 -10 -15z"/>
<path d="M1688 7863 c6 -2 18 -2 25 0 6 3 1 5 -13 5 -14 0 -19 -2 -12 -5z"/>
<path d="M2065 7850 c-3 -5 -1 -10 4 -10 6 0 11 5 11 10 0 6 -2 10 -4 10 -3 0
-8 -4 -11 -10z"/>
<path d="M1662 7764 c-1 -52 2 -84 8 -84 12 0 14 156 3 163 -5 3 -9 -33 -11
-79z"/>
<path d="M2475 7590 c-3 -5 -1 -10 4 -10 6 0 11 5 11 10 0 6 -2 10 -4 10 -3 0
-8 -4 -11 -10z"/>
<path d="M1703 7506 c-34 -16 -28 -26 17 -26 33 0 40 3 40 20 0 22 -21 25 -57
6z"/>
<path d="M2180 7300 c0 -5 4 -10 9 -10 6 0 13 5 16 10 3 6 -1 10 -9 10 -9 0
-16 -4 -16 -10z"/>
<path d="M7910 7276 c0 -2 7 -7 16 -10 8 -3 12 -2 9 4 -6 10 -25 14 -25 6z"/>
<path d="M1777 7050 c-3 -11 -1 -20 4 -20 5 0 9 9 9 20 0 11 -2 20 -4 20 -2 0
-6 -9 -9 -20z"/>
<path d="M1895 7041 c-3 -5 -1 -12 5 -16 5 -3 10 1 10 9 0 18 -6 21 -15 7z"/>
<path d="M1858 6933 c7 -3 16 -2 19 1 4 3 -2 6 -13 5 -11 0 -14 -3 -6 -6z"/>
<path d="M1455 6490 c-3 -5 1 -10 10 -10 9 0 13 5 10 10 -3 6 -8 10 -10 10 -2
0 -7 -4 -10 -10z"/>
<path d="M1505 6490 c-3 -5 -1 -10 4 -10 6 0 11 5 11 10 0 6 -2 10 -4 10 -3 0
-8 -4 -11 -10z"/>
<path d="M1831 6423 c-1 -14 5 -23 14 -23 8 0 15 5 15 11 0 5 -4 8 -9 4 -5 -3
-12 3 -14 12 -4 14 -5 13 -6 -4z"/>
<path d="M1831 6174 c0 -11 3 -14 6 -6 3 7 2 16 -1 19 -3 4 -6 -2 -5 -13z"/>
<path d="M1808 6123 c7 -3 16 -2 19 1 4 3 -2 6 -13 5 -11 0 -14 -3 -6 -6z"/>
<path d="M1765 6100 c-3 -5 1 -10 10 -10 9 0 13 5 10 10 -3 6 -8 10 -10 10 -2
0 -7 -4 -10 -10z"/>
<path d="M1810 6090 c0 -5 7 -10 16 -10 8 0 12 5 9 10 -3 6 -10 10 -16 10 -5
0 -9 -4 -9 -10z"/>
<path d="M1776 6032 c-2 -4 -1 -14 5 -22 7 -12 9 -10 9 8 0 23 -5 28 -14 14z"/>
<path d="M1870 5770 c0 -5 5 -10 10 -10 6 0 10 5 10 10 0 6 -4 10 -10 10 -5 0
-10 -4 -10 -10z"/>
<path d="M7500 5320 c0 -33 4 -60 10 -60 6 0 10 5 10 11 0 5 4 8 9 5 12 -8 35
50 27 69 -3 8 -12 15 -21 15 -8 0 -15 5 -15 10 0 6 -4 10 -10 10 -6 0 -10 -27
-10 -60z"/>
<path d="M1960 2889 c0 -5 5 -7 10 -4 6 3 10 8 10 11 0 2 -4 4 -10 4 -5 0 -10
-5 -10 -11z"/>
<path d="M1912 2720 l1 -165 8 137 c4 75 4 149 -1 165 -5 18 -8 -32 -8 -137z"/>
<path d="M2018 2313 c7 -3 16 -2 19 1 4 3 -2 6 -13 5 -11 0 -14 -3 -6 -6z"/>
<path d="M2005 2290 c-3 -5 -1 -10 4 -10 6 0 11 5 11 10 0 6 -2 10 -4 10 -3 0
-8 -4 -11 -10z"/>
<path d="M2120 2275 c0 -8 5 -15 10 -15 6 0 10 7 10 15 0 8 -4 15 -10 15 -5 0
-10 -7 -10 -15z"/>
<path d="M2250 2201 c-8 -6 -18 -8 -22 -5 -4 3 -17 0 -29 -6 -11 -7 -30 -13
-42 -16 -12 -2 -51 -15 -86 -29 -36 -14 -72 -25 -82 -25 -9 0 -22 -7 -29 -16
-8 -8 -28 -21 -47 -29 -21 -9 -33 -21 -33 -33 0 -24 -19 -40 -50 -45 -24 -4
-42 -27 -21 -27 19 0 12 -45 -10 -69 -12 -13 -18 -26 -13 -30 5 -3 10 -24 12
-45 1 -22 9 -47 16 -55 12 -14 12 -19 1 -35 -9 -11 -11 -26 -6 -40 4 -11 4
-34 1 -51 -8 -36 -1 -95 13 -112 6 -9 6 -13 -2 -13 -6 0 -11 -5 -11 -12 0 -6
11 -1 25 12 31 29 31 36 3 45 -21 7 -19 9 12 12 40 5 76 37 86 77 4 16 17 31
31 37 15 6 23 15 20 23 -3 8 2 16 14 19 10 3 19 13 18 24 0 10 -3 13 -6 6 -7
-18 -33 -16 -33 2 0 8 7 15 15 15 8 0 15 5 15 11 0 5 -3 8 -7 6 -5 -3 -17 -1
-28 4 -17 7 -17 8 8 8 30 1 38 21 8 21 -28 0 -37 20 -12 27 17 4 19 8 9 20 -8
10 -8 17 -1 21 5 4 15 17 22 30 10 19 20 22 76 22 92 0 97 21 7 32 -22 3 -22
3 5 29 16 15 46 44 69 66 22 22 52 43 66 46 15 4 30 17 34 30 3 12 13 30 22
40 14 15 13 17 -4 17 -10 0 -26 -4 -34 -9z m-410 -311 c0 -5 -4 -10 -10 -10
-5 0 -10 5 -10 10 0 6 5 10 10 10 6 0 10 -4 10 -10z m2 -52 c-7 -7 -12 -8 -12
-2 0 6 3 14 7 17 3 4 9 5 12 2 2 -3 -1 -11 -7 -17z m68 -154 c0 -8 -5 -12 -10
-9 -6 4 -8 11 -5 16 9 14 15 11 15 -7z m-35 -24 c-3 -5 -11 -10 -16 -10 -6 0
-7 5 -4 10 3 6 11 10 16 10 6 0 7 -4 4 -10z m-30 -39 c-3 -6 -11 -8 -17 -5 -6
4 -5 9 3 15 16 10 23 4 14 -10z"/>
<path d="M1960 2176 c0 -8 4 -17 8 -20 4 -2 8 4 8 15 0 10 -4 19 -8 19 -4 0
-8 -6 -8 -14z"/>
<path d="M1880 2151 c0 -18 18 -21 30 -6 10 13 9 15 -9 15 -11 0 -21 -4 -21
-9z"/>
<path d="M2174 1989 c-8 -13 25 -24 37 -12 7 7 3 12 -10 16 -12 3 -24 1 -27
-4z"/>
<path d="M2175 1939 c-4 -6 -5 -12 -2 -15 2 -3 7 2 10 11 7 17 1 20 -8 4z"/>
<path d="M2135 1930 c3 -5 2 -10 -4 -10 -6 0 -8 -6 -5 -14 3 -8 12 -12 20 -9
19 7 18 43 -2 43 -8 0 -12 -4 -9 -10z"/>
<path d="M1550 1780 c0 -5 9 -10 21 -10 11 0 17 5 14 10 -3 6 -13 10 -21 10
-8 0 -14 -4 -14 -10z"/>
<path d="M1485 1735 c28 -7 59 -13 70 -13 11 0 -2 6 -30 13 -27 7 -59 13 -70
13 -11 0 3 -6 30 -13z"/>
<path d="M1465 1710 c-3 -4 11 -10 29 -12 19 -2 33 -1 30 3 -6 10 -54 17 -59
9z"/>
<path d="M1435 1700 c3 -5 8 -10 11 -10 2 0 4 5 4 10 0 6 -5 10 -11 10 -5 0
-7 -4 -4 -10z"/>
<path d="M1565 1680 c-3 -5 3 -10 14 -10 11 0 23 5 26 10 3 6 -3 10 -14 10
-11 0 -23 -4 -26 -10z"/>
<path d="M1663 1663 c9 -2 23 -2 30 0 6 3 -1 5 -18 5 -16 0 -22 -2 -12 -5z"/>
<path d="M1433 1649 c10 -6 34 -9 53 -7 19 2 34 0 34 -4 0 -4 20 -8 45 -8 25
0 45 4 45 9 0 8 -104 21 -165 21 -26 -1 -28 -2 -12 -11z"/>
<path d="M1330 1630 c0 -5 5 -10 10 -10 6 0 10 5 10 10 0 6 -4 10 -10 10 -5 0
-10 -4 -10 -10z"/>
<path d="M1398 1632 c-10 -2 -18 -8 -18 -13 0 -9 15 -12 72 -13 15 -1 33 -7
39 -13 7 -7 32 -13 56 -13 24 0 52 -6 63 -12 15 -10 22 -10 32 0 9 9 6 12 -16
12 -15 0 -25 4 -21 10 4 6 -10 10 -34 10 -22 0 -43 5 -46 10 -3 6 -19 10 -35
10 -16 0 -39 4 -52 8 -13 5 -31 7 -40 4z"/>
<path d="M1626 1625 c4 -8 9 -15 13 -15 4 0 8 7 8 15 0 8 -6 15 -13 15 -8 0
-11 -6 -8 -15z"/>
<path d="M1688 1573 c7 -3 16 -2 19 1 4 3 -2 6 -13 5 -11 0 -14 -3 -6 -6z"/>
<path d="M1547 1553 c-14 -13 -7 -25 12 -20 11 3 26 -4 36 -16 19 -22 25 -22
-61 -1 -22 6 -25 4 -22 -12 3 -14 11 -18 32 -16 16 2 42 -2 58 -9 45 -18 58 3
22 35 -26 23 -27 25 -9 26 l20 1 -20 9 c-25 11 -59 12 -68 3z"/>
<path d="M1426 1521 c-4 -5 -2 -12 3 -15 5 -4 12 -2 15 3 4 5 2 12 -3 15 -5 4
-12 2 -15 -3z"/>
<path d="M1652 1519 c5 -16 65 -22 74 -8 3 5 -3 9 -13 9 -10 0 -29 3 -42 7
-18 4 -22 2 -19 -8z"/>
<path d="M1245 1510 c3 -5 8 -10 11 -10 2 0 4 5 4 10 0 6 -5 10 -11 10 -5 0
-7 -4 -4 -10z"/>
<path d="M1348 1478 c9 -9 15 -9 24 0 9 9 7 12 -12 12 -19 0 -21 -3 -12 -12z"/>
<path d="M1412 1478 c5 -15 48 -24 48 -10 0 10 -23 22 -42 22 -5 0 -8 -6 -6
-12z"/>
<path d="M1295 1460 c-3 -5 3 -10 15 -10 12 0 18 5 15 10 -3 6 -10 10 -15 10
-5 0 -12 -4 -15 -10z"/>
<path d="M1340 1431 c0 -5 11 -8 25 -8 13 0 22 3 19 8 -3 5 -14 9 -25 9 -10 0
-19 -4 -19 -9z"/>
<path d="M1400 1430 c0 -5 5 -10 10 -10 6 0 10 5 10 10 0 6 -4 10 -10 10 -5 0
-10 -4 -10 -10z"/>
<path d="M1308 1363 c6 -2 18 -2 25 0 6 3 1 5 -13 5 -14 0 -19 -2 -12 -5z"/>
<path d="M1325 1330 c-3 -5 -1 -10 4 -10 6 0 11 5 11 10 0 6 -2 10 -4 10 -3 0
-8 -4 -11 -10z"/>
<path d="M1380 1326 c0 -2 7 -7 16 -10 8 -3 12 -2 9 4 -6 10 -25 14 -25 6z"/>
<path d="M1280 1292 c0 -15 64 -24 91 -13 13 5 20 10 14 11 -67 9 -105 10
-105 2z"/>
<path d="M952 1241 c-11 -7 -11 -9 1 -14 16 -6 27 0 27 15 0 10 -11 10 -28 -1z"/>
<path d="M1050 1234 c0 -8 5 -12 10 -9 6 4 8 11 5 16 -9 14 -15 11 -15 -7z"/>
<path d="M1080 1235 c0 -8 5 -15 10 -15 6 0 10 7 10 15 0 8 -4 15 -10 15 -5 0
-10 -7 -10 -15z"/>
<path d="M1408 1223 c7 -3 16 -2 19 1 4 3 -2 6 -13 5 -11 0 -14 -3 -6 -6z"/>
<path d="M1448 1213 c6 -2 18 -2 25 0 6 3 1 5 -13 5 -14 0 -19 -2 -12 -5z"/>
<path d="M668 1203 c7 -3 16 -2 19 1 4 3 -2 6 -13 5 -11 0 -14 -3 -6 -6z"/>
<path d="M656 1183 c-4 -5 -12 -8 -18 -8 -6 0 -16 -8 -22 -18 -6 -11 -30 -38
-53 -62 -24 -24 -43 -46 -43 -48 0 -3 20 -8 44 -11 65 -10 80 -24 65 -61 -7
-17 -13 -34 -13 -40 -3 -29 -33 -75 -50 -75 -14 0 -17 -5 -12 -25 6 -23 3 -25
-24 -25 -20 0 -30 -5 -30 -16 0 -8 5 -12 10 -9 6 3 15 3 21 -1 8 -4 -1 -14
-22 -25 -19 -10 -29 -18 -23 -19 5 0 19 -7 30 -16 10 -8 14 -13 7 -10 -22 11
-22 -10 -1 -29 19 -16 20 -19 6 -29 -9 -6 -19 -34 -23 -63 -6 -48 -9 -51 -40
-57 -18 -4 -36 -13 -39 -21 -3 -8 -13 -15 -22 -15 -10 0 -14 5 -10 15 3 8 1
15 -3 15 -5 0 -12 -7 -15 -16 -5 -13 -15 -15 -42 -11 -25 4 -37 2 -41 -9 -3
-7 -16 -14 -28 -14 -13 0 -35 -4 -50 -10 -28 -11 -46 -41 -27 -48 7 -2 12 -9
12 -16 0 -21 128 -55 200 -54 25 1 35 3 23 5 -13 3 -23 9 -23 15 0 5 7 7 16 4
9 -3 27 -6 40 -6 16 0 24 -6 24 -17 0 -15 2 -15 9 -4 7 11 24 13 73 8 35 -3
71 -9 81 -13 14 -5 17 -1 15 17 -3 20 1 24 22 21 36 -4 50 -22 17 -22 -45 0
-30 -18 18 -22 25 -2 45 0 45 4 0 5 -7 8 -15 8 -8 0 -15 5 -15 11 0 17 33 39
45 30 5 -5 44 -11 85 -14 l75 -7 -24 20 c-26 22 -51 26 -51 9 0 -8 -4 -8 -14
0 -8 7 -28 11 -45 9 -17 -2 -31 2 -33 7 -2 6 18 11 44 11 60 2 78 9 78 29 0 9
-3 14 -8 11 -4 -2 -16 2 -27 10 -17 13 -16 14 21 15 21 1 50 4 64 8 l25 7 -25
9 c-14 5 -31 8 -37 7 -7 -2 -13 6 -13 18 0 11 5 20 10 20 6 0 10 -5 10 -11 0
-8 5 -8 15 1 26 21 17 27 -52 37 -50 8 -58 11 -30 12 20 0 37 6 37 11 0 6 15
11 33 11 23 1 26 3 10 6 -13 2 -23 9 -23 14 0 5 -22 9 -49 9 -28 0 -53 5 -56
10 -4 6 12 10 42 10 26 0 57 7 67 15 15 11 16 15 5 16 -53 3 -83 9 -92 18 -8
8 5 11 43 11 72 0 51 16 -33 25 -16 2 -31 5 -34 8 -10 11 9 27 33 27 13 0 24
5 24 10 0 6 -11 10 -25 10 -31 0 -76 20 -69 31 3 5 18 9 35 9 16 0 29 5 29 10
0 6 -10 10 -22 10 -42 0 -67 11 -61 27 3 8 11 12 18 9 8 -3 16 2 19 10 4 10
-2 14 -19 15 -44 2 -48 4 -52 16 -2 6 6 13 18 15 12 2 25 10 27 18 5 13 3 13
-11 1 -11 -9 -17 -10 -17 -2 0 6 -11 11 -25 11 -36 0 -31 23 8 38 26 10 29 14
17 23 -11 8 -12 12 -2 16 6 2 12 15 12 28 0 13 -6 26 -12 28 -10 4 -10 6 0 6
6 1 12 10 12 21 0 14 -7 20 -23 20 -13 0 -28 5 -33 10 -6 6 -14 7 -18 3z m-6
-289 c0 -9 -5 -14 -12 -12 -18 6 -21 28 -4 28 9 0 16 -7 16 -16z m-2 -42 c2
-7 -6 -12 -17 -12 -21 0 -27 11 -14 24 9 9 26 2 31 -12z m2 -62 c0 -5 -2 -10
-4 -10 -3 0 -8 5 -11 10 -3 6 -1 10 4 10 6 0 11 -4 11 -10z m-70 -50 c0 -5 -4
-10 -10 -10 -5 0 -10 5 -10 10 0 6 5 10 10 10 6 0 10 -4 10 -10z m28 -36 c6
-2 12 -8 12 -14 0 -6 -6 -7 -17 -1 -10 5 -29 14 -43 20 -24 10 -24 10 5 5 17
-3 36 -7 43 -10z m207 -164 c3 -5 1 -10 -4 -10 -6 0 -11 5 -11 10 0 6 2 10 4
10 3 0 8 -4 11 -10z m5 -60 c0 -5 -7 -10 -16 -10 -8 0 -12 5 -9 10 3 6 10 10
16 10 5 0 9 -4 9 -10z m-185 -100 c3 -5 1 -10 -4 -10 -6 0 -11 5 -11 10 0 6 2
10 4 10 3 0 8 -4 11 -10z"/>
<path d="M895 1180 c4 -7 19 -9 36 -5 17 4 29 2 29 -3 0 -6 8 -9 18 -7 9 2 21
4 25 4 5 1 6 5 3 9 -3 5 -31 10 -61 11 -39 1 -54 -2 -50 -9z"/>
<path d="M1120 1174 c0 -8 5 -12 10 -9 6 3 10 10 10 16 0 5 -4 9 -10 9 -5 0
-10 -7 -10 -16z"/>
<path d="M1078 1173 c7 -3 16 -2 19 1 4 3 -2 6 -13 5 -11 0 -14 -3 -6 -6z"/>
<path d="M946 1125 l-29 -12 27 -5 c18 -4 29 -1 33 9 8 20 2 22 -31 8z"/>
<path d="M1094 1118 c-6 -9 7 -15 41 -20 12 -2 20 3 20 12 0 16 -52 23 -61 8z"/>
<path d="M1091 1066 c-6 -7 -9 -21 -5 -30 4 -10 0 -18 -11 -22 -10 -4 -15 -16
-13 -33 1 -14 0 -31 -3 -36 -11 -18 -22 -70 -20 -88 1 -10 -3 -25 -10 -34 -11
-12 -10 -17 3 -24 20 -11 12 -49 -11 -49 -13 -1 -13 -3 4 -16 16 -12 17 -17 6
-23 -11 -7 -11 -13 -1 -32 10 -17 10 -24 1 -27 -17 -6 -13 -42 4 -42 20 0 19
-19 0 -26 -12 -5 -13 -10 -4 -20 13 -15 4 -48 -10 -39 -5 3 -12 1 -15 -4 -4
-5 14 -17 39 -27 34 -13 60 -15 107 -10 70 7 104 26 46 26 -22 0 -38 6 -41 14
-8 21 25 30 100 28 63 -2 102 17 41 19 -18 1 -40 3 -48 4 -8 1 -30 3 -48 4
-35 1 -36 21 -1 21 10 0 19 5 19 10 0 6 12 10 26 10 23 0 25 2 14 16 -8 9 -25
14 -43 12 -16 -2 -30 2 -31 7 0 6 11 10 26 10 16 1 33 6 40 13 19 19 -4 34
-54 34 -25 0 -51 4 -59 9 -9 6 6 9 44 9 36 0 56 4 52 10 -3 6 -16 10 -29 10
-12 0 -26 3 -29 6 -11 11 13 44 27 38 8 -3 17 -1 20 4 6 11 -51 25 -65 16 -13
-8 -39 15 -39 34 0 11 8 13 34 9 36 -6 76 1 76 12 0 4 -23 8 -52 9 -28 1 -54
4 -56 7 -3 2 6 13 19 24 24 20 24 20 4 35 -19 14 -19 15 13 26 17 7 32 16 32
20 0 14 -18 21 -25 10 -4 -6 -11 -8 -16 -5 -15 10 -10 42 7 49 13 5 14 9 4 21
-16 19 -54 19 -69 1z m69 -286 c0 -13 -7 -20 -20 -20 -18 0 -19 2 -8 20 7 11
16 20 20 20 5 0 8 -9 8 -20z m-50 -54 c0 -2 -9 -6 -20 -9 -11 -3 -18 -1 -14 4
5 9 34 13 34 5z m60 -60 c0 -3 -4 -8 -10 -11 -5 -3 -10 -1 -10 4 0 6 5 11 10
11 6 0 10 -2 10 -4z"/>
<path d="M947 1063 c-15 -14 -6 -23 23 -23 32 0 40 14 14 24 -20 8 -29 8 -37
-1z"/>
<path d="M1546 1011 c-4 -7 -5 -15 -2 -18 9 -9 19 4 14 18 -4 11 -6 11 -12 0z"/>
<path d="M951 994 c0 -11 3 -14 6 -6 3 7 2 16 -1 19 -3 4 -6 -2 -5 -13z"/>
<path d="M971 983 c0 -25 1 -26 9 -8 12 27 12 35 0 35 -5 0 -10 -12 -9 -27z"/>
<path d="M575 950 c-3 -5 -2 -10 4 -10 5 0 13 5 16 10 3 6 2 10 -4 10 -5 0
-13 -4 -16 -10z"/>
<path d="M1430 948 c0 -4 9 -8 20 -8 11 0 20 4 20 9 0 6 -9 9 -20 8 -11 -1
-20 -5 -20 -9z"/>
<path d="M556 895 c-3 -8 -1 -15 4 -15 6 0 10 7 10 15 0 8 -2 15 -4 15 -2 0
-6 -7 -10 -15z"/>
<path d="M1500 880 c-23 -7 -23 -8 -3 -9 12 -1 25 4 28 9 3 6 5 10 3 9 -2 -1
-14 -5 -28 -9z"/>
<path d="M1600 781 c0 -9 -8 -11 -27 -7 -17 5 -29 3 -34 -6 -5 -7 -13 -14 -19
-14 -5 -1 -16 -2 -22 -3 -8 -1 -5 -8 7 -17 15 -11 17 -17 7 -23 -7 -4 -10 -15
-6 -24 10 -27 24 -20 24 13 0 29 2 30 44 30 52 0 63 11 42 42 -9 12 -16 16
-16 9z"/>
<path d="M347 693 c-4 -3 -7 -12 -7 -20 0 -11 5 -11 20 -3 11 6 20 15 20 20 0
11 -23 13 -33 3z"/>
<path d="M6841 641 c-7 -5 -11 -13 -7 -19 8 -14 46 -3 46 14 0 16 -18 18 -39
5z"/>
<path d="M378 583 c7 -3 16 -2 19 1 4 3 -2 6 -13 5 -11 0 -14 -3 -6 -6z"/>
<path d="M6755 570 c3 -5 15 -10 26 -10 10 0 19 5 19 10 0 6 -12 10 -26 10
-14 0 -23 -4 -19 -10z"/>
<path d="M2878 562 c-16 -2 -28 -9 -28 -18 0 -14 5 -14 80 6 l25 7 -25 4 c-14
2 -37 3 -52 1z"/>
<path d="M6346 521 c-9 -14 5 -42 18 -38 15 5 14 39 -1 44 -6 2 -14 0 -17 -6z"/>
<path d="M1521 504 c0 -11 3 -14 6 -6 3 7 2 16 -1 19 -3 4 -6 -2 -5 -13z"/>
<path d="M2820 500 c0 -5 9 -10 20 -10 11 0 20 5 20 10 0 6 -9 10 -20 10 -11
0 -20 -4 -20 -10z"/>
<path d="M1248 493 c7 -3 16 -2 19 1 4 3 -2 6 -13 5 -11 0 -14 -3 -6 -6z"/>
<path d="M2635 480 c-3 -5 -1 -10 4 -10 6 0 11 5 11 10 0 6 -2 10 -4 10 -3 0
-8 -4 -11 -10z"/>
<path d="M2540 470 c0 -5 5 -10 10 -10 6 0 10 5 10 10 0 6 -4 10 -10 10 -5 0
-10 -4 -10 -10z"/>
<path d="M1094 455 c-3 -8 -2 -19 2 -26 4 -7 -3 -19 -17 -30 -13 -10 -21 -20
-18 -24 4 -3 38 -8 77 -10 39 -2 75 -5 79 -8 4 -2 22 -3 38 -2 17 1 43 3 58 3
18 1 27 7 24 15 -2 6 -12 11 -21 9 -10 -2 -24 2 -32 9 -10 8 -14 8 -14 0 0 -6
-7 -11 -15 -11 -8 0 -15 5 -15 11 0 6 -9 9 -20 6 -11 -3 -17 -1 -14 4 3 6 -5
7 -21 3 -21 -5 -26 -4 -23 7 3 10 23 14 64 15 112 1 113 8 4 24 -41 6 -88 12
-103 15 -18 3 -30 0 -33 -10z m46 -34 c0 -6 -4 -13 -10 -16 -5 -3 -10 1 -10 9
0 9 5 16 10 16 6 0 10 -4 10 -9z"/>
<path d="M1055 449 c-10 -15 3 -25 16 -12 7 7 7 13 1 17 -6 3 -14 1 -17 -5z"/>
<path d="M5695 440 c-3 -5 -1 -10 4 -10 6 0 11 5 11 10 0 6 -2 10 -4 10 -3 0
-8 -4 -11 -10z"/>
<path d="M2085 429 c-4 -6 -5 -13 -2 -16 7 -7 27 6 27 18 0 12 -17 12 -25 -2z"/>
<path d="M1447 370 c-3 -13 0 -20 9 -20 8 0 14 9 14 20 0 11 -4 20 -9 20 -5 0
-11 -9 -14 -20z"/>
<path d="M2042 373 c-17 -7 -5 -23 19 -23 10 0 19 7 19 15 0 15 -14 18 -38 8z"/>
<path d="M795 336 c13 -10 31 -13 53 -10 17 4 32 2 32 -2 0 -5 25 -7 55 -6 62
4 76 20 18 20 -21 0 -69 3 -108 7 -65 7 -69 6 -50 -9z"/>
<path d="M1041 341 c-11 -7 -10 -11 7 -20 22 -12 39 0 27 19 -8 12 -16 12 -34
1z"/>
<path d="M1111 342 c-21 -15 -8 -35 25 -38 70 -5 206 -5 211 0 12 11 -6 18
-74 26 -37 5 -86 12 -108 15 -22 3 -46 2 -54 -3z"/>
<path d="M5650 340 c0 -5 5 -10 11 -10 5 0 7 5 4 10 -3 6 -8 10 -11 10 -2 0
-4 -4 -4 -10z"/>
<path d="M1470 310 c0 -24 15 -27 24 -4 9 22 8 24 -9 24 -8 0 -15 -9 -15 -20z"/>
<path d="M1527 314 c-17 -9 -26 -21 -23 -29 3 -8 1 -17 -4 -20 -15 -9 -12 -25
5 -25 8 0 15 8 15 19 0 26 27 48 42 33 9 -9 7 -17 -7 -32 -10 -11 -16 -22 -14
-25 9 -8 79 7 79 17 0 6 -7 7 -15 4 -10 -3 -18 1 -22 11 -4 9 -1 19 5 21 7 2
12 12 12 23 0 24 -33 25 -73 3z"/>
<path d="M1610 306 c0 -23 2 -24 63 -20 34 1 71 5 82 8 11 2 34 5 50 6 28 1
28 2 8 10 -12 5 -56 8 -98 7 -41 -2 -75 1 -75 5 0 4 -7 8 -15 8 -9 0 -15 -9
-15 -24z"/>
<path d="M634 308 c-4 -7 -2 -8 5 -4 6 4 17 3 24 -2 16 -14 136 -36 145 -28
10 11 -18 25 -41 20 -11 -2 -27 0 -36 5 -29 15 -90 20 -97 9z"/>
<path d="M1360 305 c0 -9 5 -15 11 -13 6 2 11 8 11 13 0 5 -5 11 -11 13 -6 2
-11 -4 -11 -13z"/>
<path d="M1427 313 c-11 -10 -8 -20 8 -27 10 -4 15 1 15 14 0 20 -11 26 -23
13z"/>
<path d="M2380 300 c0 -5 7 -10 15 -10 8 0 15 5 15 10 0 6 -7 10 -15 10 -8 0
-15 -4 -15 -10z"/>
<path d="M530 291 c8 -6 18 -7 22 -4 5 2 14 0 21 -5 7 -5 24 -12 39 -16 14 -3
34 -9 45 -13 10 -3 15 -3 11 2 -11 11 -109 44 -133 45 -16 0 -17 -2 -5 -9z"/>
<path d="M198 283 c7 -3 16 -2 19 1 4 3 -2 6 -13 5 -11 0 -14 -3 -6 -6z"/>
<path d="M853 273 c9 -2 23 -2 30 0 6 3 -1 5 -18 5 -16 0 -22 -2 -12 -5z"/>
<path d="M1075 270 c-3 -5 3 -10 15 -10 12 0 18 5 15 10 -3 6 -10 10 -15 10
-5 0 -12 -4 -15 -10z"/>
<path d="M1120 263 c0 -9 8 -13 21 -11 15 2 23 -3 25 -17 3 -19 -2 -20 -63
-17 -59 3 -65 2 -51 -11 11 -11 39 -15 107 -16 50 0 96 -3 102 -7 31 -19 77
-21 99 -4 23 18 22 18 -73 25 -54 4 -99 11 -102 15 -9 14 20 29 50 25 17 -3
78 -7 136 -9 97 -4 106 -3 102 13 -3 14 -16 17 -66 17 -34 -1 -113 2 -174 5
-95 6 -113 4 -113 -8z"/>
<path d="M1003 263 c9 -2 25 -2 35 0 9 3 1 5 -18 5 -19 0 -27 -2 -17 -5z"/>
<path d="M6524 259 c-13 -22 12 -30 31 -9 18 19 18 20 -3 20 -11 0 -24 -5 -28
-11z"/>
<path d="M520 248 c25 -6 59 -16 75 -23 45 -19 95 -28 95 -17 0 5 -20 13 -44
16 -24 4 -52 13 -62 21 -11 8 -39 14 -64 13 l-45 0 45 -10z"/>
<path d="M1730 250 c-34 -7 -34 -7 13 -9 26 0 47 4 47 9 0 11 -8 11 -60 0z"/>
<path d="M2384 245 c19 -14 36 -12 36 6 0 5 -12 9 -27 9 -27 -1 -27 -1 -9 -15z"/>
<path d="M705 240 c3 -5 12 -7 20 -3 21 7 19 13 -6 13 -11 0 -18 -4 -14 -10z"/>
<path d="M802 238 c5 -15 28 -23 28 -10 0 5 -7 13 -16 16 -10 4 -14 1 -12 -6z"/>
<path d="M1643 243 c9 -2 23 -2 30 0 6 3 -1 5 -18 5 -16 0 -22 -2 -12 -5z"/>
<path d="M860 225 c0 -8 5 -15 10 -15 6 0 10 7 10 15 0 8 -4 15 -10 15 -5 0
-10 -7 -10 -15z"/>
<path d="M895 220 c3 -5 10 -10 16 -10 5 0 9 5 9 10 0 6 -7 10 -16 10 -8 0
-12 -4 -9 -10z"/>
<path d="M955 210 c4 -6 11 -8 16 -5 14 9 11 15 -7 15 -8 0 -12 -5 -9 -10z"/>
<path d="M5290 200 c-12 -8 -10 -10 8 -10 13 0 20 4 17 10 -7 12 -6 12 -25 0z"/>
<path d="M448 194 c6 -3 10 -10 6 -15 -5 -8 10 -13 29 -10 5 1 7 -4 4 -11 -2
-7 -11 -11 -18 -9 -48 13 -61 13 -57 0 2 -7 15 -17 29 -20 13 -4 -5 -5 -41 -3
-63 4 -64 4 -35 -10 17 -9 35 -15 42 -16 6 0 15 -5 19 -12 5 -8 0 -9 -14 -6
-14 4 -20 2 -15 -5 4 -7 0 -8 -13 -2 -10 4 -29 8 -41 8 -13 -1 -20 3 -17 8 3
5 -4 9 -15 9 -23 0 -28 -15 -8 -24 9 -3 7 -9 -5 -19 -22 -18 -23 -27 -2 -27 9
0 18 9 21 20 3 11 9 20 14 20 15 0 10 -15 -11 -38 -11 -12 -20 -23 -20 -26 0
-2 37 -5 82 -5 55 -1 85 3 91 12 7 9 10 9 14 0 3 -9 31 -13 89 -13 54 0 83 4
79 10 -4 6 15 8 53 4 41 -5 62 -3 67 5 4 7 4 15 0 19 -3 3 -10 1 -14 -6 -6
-11 -15 -10 -42 2 -34 16 -34 16 39 11 74 -5 89 -1 49 14 -13 5 -24 16 -24 25
0 14 11 15 80 1 9 -2 17 0 17 5 0 11 -26 20 -56 20 -36 0 -29 18 9 22 21 2 31
8 29 17 -2 8 2 17 9 21 13 8 -12 15 -98 25 -43 6 -54 4 -72 -14 -11 -11 -36
-23 -56 -27 -19 -3 -38 -10 -41 -15 -8 -14 -48 -11 -70 6 -10 8 -14 15 -7 15
6 0 15 -4 18 -10 8 -13 42 -13 50 0 4 6 -7 13 -24 16 -17 4 -31 10 -31 15 0 4
-12 7 -28 7 -15 -1 -38 2 -52 5 -14 4 -19 4 -12 1z m302 -25 c-11 -7 -1 -8 33
-3 28 4 47 2 47 -4 0 -5 -23 -10 -52 -11 -28 0 -55 -6 -59 -12 -5 -8 -8 -8
-13 0 -4 6 -2 11 3 11 6 0 11 7 11 15 0 9 9 15 23 15 18 0 19 -2 7 -11z m13
-36 c-7 -2 -19 -2 -25 0 -7 3 -2 5 12 5 14 0 19 -2 13 -5z m-83 -23 c0 -5 -4
-10 -10 -10 -5 0 -10 5 -10 10 0 6 5 10 10 10 6 0 10 -4 10 -10z m-105 -10 c3
-5 1 -10 -4 -10 -6 0 -11 5 -11 10 0 6 2 10 4 10 3 0 8 -4 11 -10z m140 0 c3
-5 2 -10 -4 -10 -5 0 -13 5 -16 10 -3 6 -2 10 4 10 5 0 13 -4 16 -10z m-215
-31 c0 -4 -10 -9 -23 -11 -15 -3 -24 0 -24 9 0 7 6 13 14 13 7 0 13 6 13 13 0
12 20 -11 20 -24z m260 11 c0 -11 -2 -20 -5 -20 -2 0 -9 9 -15 20 -9 16 -8 20
5 20 8 0 15 -9 15 -20z m-120 -9 c0 -5 -9 -7 -20 -4 -11 3 -20 7 -20 9 0 2 9
4 20 4 11 0 20 -4 20 -9z m-253 -27 c-3 -3 -12 -4 -19 -1 -8 3 -5 6 6 6 11 1
17 -2 13 -5z m253 -24 c0 -5 -6 -10 -14 -10 -8 0 -18 5 -21 10 -3 6 3 10 14
10 12 0 21 -4 21 -10z"/>
<path d="M2167 178 c-14 -49 -10 -53 45 -52 29 1 52 6 50 10 -2 5 -11 8 -20 7
-9 -1 -24 3 -34 8 -12 7 -18 6 -18 -1 0 -6 -5 -8 -11 -4 -18 11 11 24 53 24
20 0 40 5 43 10 4 6 -7 10 -27 10 -18 0 -43 3 -54 6 -16 4 -23 0 -27 -18z"/>
<path d="M610 180 c0 -5 11 -10 25 -10 14 0 25 5 25 10 0 6 -11 10 -25 10 -14
0 -25 -4 -25 -10z"/>
<path d="M1728 183 c7 -3 16 -2 19 1 4 3 -2 6 -13 5 -11 0 -14 -3 -6 -6z"/>
<path d="M2325 180 c3 -5 12 -7 20 -3 21 7 19 13 -6 13 -11 0 -18 -4 -14 -10z"/>
<path d="M360 160 c0 -5 9 -10 20 -10 11 0 20 5 20 10 0 6 -9 10 -20 10 -11 0
-20 -4 -20 -10z"/>
<path d="M1060 159 c0 -5 19 -9 42 -9 23 0 38 3 34 7 -11 11 -76 13 -76 2z"/>
<path d="M1210 155 c0 -8 5 -15 10 -15 6 0 10 7 10 15 0 8 -4 15 -10 15 -5 0
-10 -7 -10 -15z"/>
<path d="M1249 149 c-8 -5 -8 -8 0 -13 6 -4 16 -4 22 0 7 4 10 1 7 -7 -5 -16
-104 -24 -113 -9 -3 6 -39 10 -78 9 -63 -1 -68 -3 -44 -12 41 -16 34 -35 -15
-39 l-43 -4 40 -7 c72 -15 85 -26 32 -26 -29 -1 -46 -5 -42 -11 3 -5 15 -10
26 -10 10 0 19 -4 19 -10 0 -6 48 -10 125 -10 116 0 125 1 135 21 7 11 10 23
7 25 -2 2 -53 9 -113 15 -131 13 -141 16 -126 31 8 8 15 8 26 -1 9 -7 21 -9
28 -5 17 11 71 12 79 1 3 -4 31 -10 62 -13 59 -5 73 6 45 34 -10 10 -10 15 1
21 23 14 2 32 -35 29 -19 -1 -39 -5 -45 -9z m-24 -130 c-7 -10 -35 -1 -35 11
0 5 9 6 20 3 11 -3 17 -9 15 -14z m55 11 c0 -5 -5 -10 -11 -10 -5 0 -7 5 -4
10 3 6 8 10 11 10 2 0 4 -4 4 -10z"/>
<path d="M5221 151 c-9 -6 -10 -11 -2 -15 13 -8 31 1 31 15 0 11 -11 11 -29 0z"/>
<path d="M5270 144 c0 -8 5 -12 10 -9 6 3 10 10 10 16 0 5 -4 9 -10 9 -5 0
-10 -7 -10 -16z"/>
<path d="M5316 151 c-4 -5 -2 -12 3 -15 5 -4 12 -2 15 3 4 5 2 12 -3 15 -5 4
-12 2 -15 -3z"/>
<path d="M1390 140 c-12 -8 -11 -10 8 -10 12 0 22 5 22 10 0 13 -11 13 -30 0z"/>
<path d="M1450 140 c0 -5 5 -10 10 -10 6 0 10 5 10 10 0 6 -4 10 -10 10 -5 0
-10 -4 -10 -10z"/>
<path d="M1545 140 c3 -5 8 -10 11 -10 2 0 4 5 4 10 0 6 -5 10 -11 10 -5 0 -7
-4 -4 -10z"/>
<path d="M5133 113 c-7 -2 -13 -16 -13 -29 0 -19 -5 -24 -27 -24 -35 0 -48 -9
-55 -38 -5 -18 -2 -22 18 -22 17 0 22 4 18 15 -4 10 0 15 11 15 12 0 15 -5 11
-16 -5 -14 -1 -16 25 -10 17 3 40 6 50 6 11 0 19 7 19 17 0 13 3 14 12 5 17
-17 38 -15 38 3 0 8 -7 15 -16 15 -8 0 -12 5 -9 11 4 6 13 8 21 5 21 -8 47 23
33 40 -11 14 -108 19 -136 7z m44 -55 c-19 -12 -27 2 -14 22 11 18 12 19 18 2
3 -9 1 -20 -4 -24z"/>
<path d="M7382 108 c5 -15 37 -18 41 -3 1 6 -9 12 -22 13 -16 3 -22 -1 -19
-10z"/>
<path d="M248 103 c7 -3 16 -2 19 1 4 3 -2 6 -13 5 -11 0 -14 -3 -6 -6z"/>
<path d="M1516 85 c4 -8 10 -12 15 -9 14 8 10 24 -6 24 -9 0 -12 -6 -9 -15z"/>
<path d="M1986 91 c-12 -19 4 -30 41 -28 37 2 61 27 26 27 -10 0 -28 3 -39 6
-12 3 -25 1 -28 -5z"/>
<path d="M1418 83 c7 -3 16 -2 19 1 4 3 -2 6 -13 5 -11 0 -14 -3 -6 -6z"/>
<path d="M5430 80 c-9 -6 -10 -10 -3 -10 6 0 15 5 18 10 8 12 4 12 -15 0z"/>
<path d="M5005 50 c-3 -5 1 -10 9 -10 9 0 16 5 16 10 0 6 -4 10 -9 10 -6 0
-13 -4 -16 -10z"/>
<path d="M1395 42 c-44 -3 -64 -13 -65 -33 0 -4 17 -2 38 3 20 6 63 10 95 9
41 -2 57 1 57 11 0 14 -31 16 -125 10z"/>
<path d="M7398 43 c7 -3 16 -2 19 1 4 3 -2 6 -13 5 -11 0 -14 -3 -6 -6z"/>
<path d="M7260 30 c0 -5 5 -10 10 -10 6 0 10 5 10 10 0 6 -4 10 -10 10 -5 0
-10 -4 -10 -10z"/>
<path d="M4933 9 c-12 -5 -3 -8 25 -8 23 -1 42 3 42 9 0 11 -38 10 -67 -1z"/>
<path d="M788 3 c6 -2 18 -2 25 0 6 3 1 5 -13 5 -14 0 -19 -2 -12 -5z"/>
</g>
</svg>
